<?xml version="1.0" standalone="no"?>
<!DOCTYPE svg PUBLIC "-//W3C//DTD SVG 1.1//EN" "http://www.w3.org/Graphics/SVG/1.1/DTD/svg11.dtd" >
<svg xmlns="http://www.w3.org/2000/svg">
<metadata></metadata>
<defs>
<font id="tepeno_sansbold" horiz-adv-x="1000" >
<font-face units-per-em="2048" ascent="1638" descent="-410" />
<missing-glyph horiz-adv-x="400" />
<glyph horiz-adv-x="2048" />
<glyph horiz-adv-x="2048" />
<glyph unicode="&#xd;" horiz-adv-x="2048" />
<glyph unicode=" "  horiz-adv-x="400" />
<glyph unicode="&#x09;" horiz-adv-x="400" />
<glyph unicode="&#xa0;" horiz-adv-x="400" />
<glyph unicode="!" horiz-adv-x="500" d="M200 0v300h300v-300h-300zM200 400v1000h300v-1000h-300z" />
<glyph unicode="&#x22;" horiz-adv-x="800" d="M100 900v100q120 0 120 150h-120v250h300v-250q0 -250 -300 -250zM500 900v100q120 0 120 150h-120v250h300v-250q0 -250 -300 -250z" />
<glyph unicode="#" horiz-adv-x="1500" d="M200 300v300h227l36 200h-163v300h236l64 300h300l-64 -300h200l64 300h300l-64 -300h164v-300h-237l-36 -200h173v-300h-236l-64 -300h-300l64 300h-200l-64 -300h-300l64 300h-164zM727 600h200l36 200h-200z" />
<glyph unicode="$" horiz-adv-x="1149" d="M200 99l62 275q184 -72 377 -74v270q-47 17 -105 35q-315 95 -315 395q0 374 420 398v202h100v-201q222 -7 360 -99v-4l-58 -271q-161 65 -302 74v-273q43 -16 95 -31q315 -95 315 -395q0 -362 -410 -397v-203h-100v200q-292 1 -439 99zM519 995q0 -65 120 -126v227 q-120 -16 -120 -101zM739 307q110 20 110 98q0 62 -110 120v-218z" />
<glyph unicode="%" horiz-adv-x="1900" d="M200 1000q0 400 350 400t350 -400t-350 -400t-350 400zM460 1000q0 -140 90 -140t90 140t-90 140t-90 -140zM650 0l500 1400h300l-500 -1400h-300zM1200 400q0 400 350 400t350 -400t-350 -400t-350 400zM1460 400q0 -140 90 -140t90 140t-90 140t-90 -140z" />
<glyph unicode="&#x26;" horiz-adv-x="1220" d="M200 400q0 223 202 299q-202 77 -202 301q0 400 450 400q250 0 380 -100l-77 -271q-136 71 -303 71q-150 0 -150 -130q0 -121 212 -121l108 1v100h300v-100h100v-300h-100v-250q0 -100 100 -100l-10 -200q-273 0 -345 111q-110 -111 -265 -111q-400 0 -400 400zM500 430 q0 -130 150 -130q128 0 170 73v177h-112q-208 0 -208 -120z" />
<glyph unicode="'" horiz-adv-x="400" d="M100 900v100q120 0 120 150h-120v250h300v-250q0 -250 -300 -250z" />
<glyph unicode="(" horiz-adv-x="748" d="M200 700q0 500 300 900l248 -74q-248 -371 -248 -826t248 -827l-248 -73q-300 400 -300 900z" />
<glyph unicode=")" horiz-adv-x="748" d="M200 -127q248 372 248 827t-248 826l248 74q300 -400 300 -900t-300 -900z" />
<glyph unicode="*" horiz-adv-x="840" d="M200 1260l40 150l190 -50v190h170v-190l200 50l40 -150l-180 -50l130 -180l-130 -80l-140 170l-140 -170l-130 80l130 180z" />
<glyph unicode="+" d="M200 550v300h250v250h300v-250h250v-300h-250v-250h-300v250h-250z" />
<glyph unicode="," horiz-adv-x="400" d="M100 50v250h300v-250q0 -250 -300 -250v100q120 0 120 150h-120z" />
<glyph unicode="-" horiz-adv-x="800" d="M200 550v300h600v-300h-600z" />
<glyph unicode="." horiz-adv-x="400" d="M100 0v300h300v-300h-300z" />
<glyph unicode="/" horiz-adv-x="700" d="M100 -200l400 1800h299l-399 -1800h-300z" />
<glyph unicode="0" horiz-adv-x="1200" d="M200 700q0 700 500 700t500 -700t-500 -700t-500 700zM500 700q0 -400 200 -400t200 400t-200 400t-200 -400z" />
<glyph unicode="1" horiz-adv-x="600" d="M200 1050v250l200 100h200v-1400h-300v1050h-100z" />
<glyph unicode="2" horiz-adv-x="1100" d="M200 0v300q0 300 290 430t290 250t-160 120t-320 -74l-80 274q150 100 400 100q460 0 460 -420q0 -260 -290 -410t-290 -270h600v-300h-900z" />
<glyph unicode="3" horiz-adv-x="1050" d="M200 100l82 272q149 -72 268 -72q200 0 200 120q0 130 -310 130h-35l-5 300h40q310 0 310 130q0 120 -200 120q-116 0 -249 -70l-81 270q130 100 380 100q450 0 450 -420q0 -204 -203 -281q203 -76 203 -279q0 -420 -450 -420q-250 0 -400 100z" />
<glyph unicode="4" horiz-adv-x="1200" d="M200 300v300l530 800h370v-800h100v-300h-100v-300h-300v300h-600zM540 600h260v450z" />
<glyph unicode="5" horiz-adv-x="1100" d="M200 100l82 273q159 -73 318 -73q200 0 200 150t-200 150t-380 -100v900h830v-300h-530v-216q80 16 180 16q400 0 400 -450t-500 -450q-250 0 -400 100z" />
<glyph unicode="6" horiz-adv-x="1200" d="M200 700q0 700 560 700q200 0 350 -100l-80 -273q-151 73 -270 73q-221 0 -256 -296q60 96 206 96q490 0 490 -450t-490 -450q-510 0 -510 700zM503 502q29 -202 207 -202q190 0 190 150t-190 150q-149 0 -207 -98z" />
<glyph unicode="7" horiz-adv-x="1100" d="M200 1100v300h900v-300q-350 -400 -350 -1100h-300q0 700 310 1100h-560z" />
<glyph unicode="8" horiz-adv-x="1140" d="M200 400q0 221 188 302q-168 84 -168 298q0 400 450 400t450 -400q0 -214 -169 -298q189 -81 189 -302q0 -400 -470 -400t-470 400zM500 430q0 -130 170 -130t170 130q0 120 -170 120t-170 -120zM520 970q0 -120 150 -120t150 120q0 130 -150 130t-150 -130z" />
<glyph unicode="9" horiz-adv-x="1200" d="M200 950q0 450 490 450q510 0 510 -700t-560 -700q-200 0 -350 100l80 273q151 -73 270 -73q221 0 256 296q-60 -96 -206 -96q-490 0 -490 450zM500 950q0 -150 190 -150q149 0 207 98q-29 202 -207 202q-190 0 -190 -150z" />
<glyph unicode=":" horiz-adv-x="500" d="M200 0v300h300v-300h-300zM200 700v300h300v-300h-300z" />
<glyph unicode=";" horiz-adv-x="500" d="M200 0v300h300v-300q0 -200 -300 -200v100q120 0 120 100h-120zM200 700v300h300v-300h-300z" />
<glyph unicode="&#x3c;" d="M200 580v240l800 380v-320l-450 -180l450 -180v-320z" />
<glyph unicode="=" d="M200 300v300h800v-300h-800zM200 800v300h800v-300h-800z" />
<glyph unicode="&#x3e;" d="M200 200v320l450 180l-450 180v320l800 -380v-240z" />
<glyph unicode="?" horiz-adv-x="1100" d="M200 1299v1q150 100 420 100q480 0 480 -435q0 -204 -175 -314.5t-175 -250.5h-300q0 250 170 350t170 220q0 130 -170 130q-179 0 -337 -73zM450 0v300h300v-300h-300z" />
<glyph unicode="@" horiz-adv-x="1800" d="M200 450q0 950 800 950t800 -900q0 -500 -350 -500q-250 0 -304 110q-96 -110 -296 -110q-250 0 -250 300t250 300q200 0 250 -100v100q0 100 -130 100q-127 0 -242 -66l-78 266q150 100 320 100q430 0 430 -400v-300q0 -100 100 -100t100 300q0 700 -600 700t-600 -750 q0 -650 600 -650q160 0 320 74l80 -174q-150 -100 -400 -100q-800 0 -800 850zM900 300q0 -90 80 -90q70 0 120 70v40q-50 70 -120 70q-80 0 -80 -90z" />
<glyph unicode="A" horiz-adv-x="1200" d="M100 0l350 1400h500l350 -1400h-310l-76 300h-429l-75 -300h-310zM562 600h275l-137 525z" />
<glyph unicode="B" horiz-adv-x="1150" d="M200 0v1400h550v-2q350 -24 350 -398q0 -202 -133 -287q183 -77 183 -313q0 -400 -400 -400h-550zM500 300h200q150 0 150 120q0 130 -150 130h-200v-250zM500 850h200q100 5 100 120q0 130 -110 130h-190v-250z" />
<glyph unicode="C" horiz-adv-x="1200" d="M200 700q0 700 600 700q250 0 400 -100l-81 -274q-159 74 -319 74q-300 0 -300 -400t300 -400q159 0 318 73l82 -273q-150 -100 -400 -100q-600 0 -600 700z" />
<glyph unicode="D" horiz-adv-x="1300" d="M200 0v1400h400q700 0 700 -700t-700 -700h-400zM500 300h100q400 0 400 400t-400 400h-100v-800z" />
<glyph unicode="E" d="M200 0v1400h800v-300h-500v-250h450v-300h-450v-250h500v-300h-800z" />
<glyph unicode="F" d="M200 0v1400h800v-300h-500v-250h450v-300h-450v-550h-300z" />
<glyph unicode="G" horiz-adv-x="1250" d="M200 700q0 700 600 700q250 0 400 -100l-80 -274q-160 74 -320 74q-300 0 -300 -400t300 -400q95 0 150 38v212h-250v300h550v-700q-200 -150 -450 -150q-600 0 -600 700z" />
<glyph unicode="H" horiz-adv-x="1200" d="M200 0v1400h300v-550h400v550h300v-1400h-300v550h-400v-550h-300z" />
<glyph unicode="I" horiz-adv-x="500" d="M200 0v1400h300v-1400h-300z" />
<glyph unicode="J" horiz-adv-x="700" d="M200 0v300q200 0 200 200v900h300v-900q0 -500 -500 -500z" />
<glyph unicode="K" horiz-adv-x="1300" d="M200 0v1400h300v-520l420 520h380l-481 -574l531 -826h-400l-363 598l-87 -98v-500h-300z" />
<glyph unicode="L" d="M200 0v1400h300v-1100h500v-300h-800z" />
<glyph unicode="M" horiz-adv-x="1400" d="M200 0v1400h310l290 -520l290 520h310v-1400h-300v820l-236 -421h-128l-236 421v-820h-300z" />
<glyph unicode="N" horiz-adv-x="1200" d="M200 0v1400h300l400 -770v770h300v-1400h-300l-400 770v-770h-300z" />
<glyph unicode="O" horiz-adv-x="1400" d="M200 700q0 700 600 700t600 -700t-600 -700t-600 700zM500 700q0 -400 300 -400t300 400t-300 400t-300 -400z" />
<glyph unicode="P" horiz-adv-x="1150" d="M200 0v1400h500q450 0 450 -450q0 -500 -450 -500h-200v-450h-300zM500 750h200q150 0 150 180q0 170 -150 170h-200v-350z" />
<glyph unicode="Q" horiz-adv-x="1400" d="M200 700q0 700 600 700t600 -700q0 -486 -289 -635l251 -65l-61 -244l-581 152l23 93q-543 33 -543 699zM500 700q0 -400 300 -400t300 400t-300 400t-300 -400z" />
<glyph unicode="R" horiz-adv-x="1200" d="M200 0v1400h550q400 0 400 -450q0 -234 -178 -311q179 -63 179 -254v-11q0 -276 49 -374h-300q-49 98 -49 316v11q0 173 -149 173h-202v-500h-300zM500 800h200q150 0 150 150t-100 150h-250v-300z" />
<glyph unicode="S" horiz-adv-x="1149" d="M200 99l62 275q188 -74 387 -74q190 0 190 105q0 125 -310 200t-310 395q0 400 480 400q250 0 400 -100v-4l-58 -271q-181 75 -342 75q-170 0 -170 -105q0 -125 310 -200t310 -395q0 -400 -500 -400q-299 0 -449 99z" />
<glyph unicode="T" horiz-adv-x="1100" d="M200 1100v300h900v-300h-300v-1100h-300v1100h-300z" />
<glyph unicode="U" horiz-adv-x="1200" d="M200 500v900h300v-900q0 -200 200 -200t200 200v900h300v-900q0 -500 -500 -500t-500 500z" />
<glyph unicode="V" horiz-adv-x="1100" d="M100 1400h300l250 -1125l260 1125h290l-300 -1400h-500z" />
<glyph unicode="W" horiz-adv-x="1600" d="M100 1400h300l124 -950l206 950h340l205 -950l125 950h300l-200 -1400h-420l-180 850l-180 -850h-420z" />
<glyph unicode="X" horiz-adv-x="1250" d="M200 0l305 700l-305 700h340l185 -493l185 493h340l-305 -700l305 -700h-340l-185 492l-185 -492h-340z" />
<glyph unicode="Y" horiz-adv-x="1250" d="M200 1400h340l185 -450l185 450h340l-375 -800v-600h-300v600z" />
<glyph unicode="Z" horiz-adv-x="1100" d="M200 0v300l540 800h-540v300h900v-300l-540 -800h540v-300h-900z" />
<glyph unicode="[" horiz-adv-x="700" d="M200 -200v1800h500v-300h-200v-1200h200v-300h-500z" />
<glyph unicode="\" horiz-adv-x="700" d="M100 1600h299l400 -1800h-300z" />
<glyph unicode="]" horiz-adv-x="700" d="M200 100h200v1200h-200v300h500v-1800h-500v300z" />
<glyph unicode="^" d="M200 1000l200 400h400l200 -400h-300l-100 250l-100 -250h-300z" />
<glyph unicode="_" horiz-adv-x="800" d="M0 -250h800v-150h-800v150z" />
<glyph unicode="`" horiz-adv-x="600" d="M200 1400h300l100 -300h-300z" />
<glyph unicode="a" d="M200 300q0 300 250 300q200 0 250 -100v100q0 100 -130 100q-127 0 -242 -66l-78 266q150 100 320 100q430 0 430 -400v-300q0 -100 100 -100l-10 -200h-90q-200 0 -254 110q-96 -110 -296 -110q-250 0 -250 300zM500 300q0 -90 80 -90q70 0 120 70v40q-50 70 -120 70 q-80 0 -80 -90z" />
<glyph unicode="b" horiz-adv-x="1100" d="M200 0v1400h300v-500q100 100 220 100q380 0 380 -500t-380 -500q-120 0 -220 100v-100h-300zM500 400q50 -100 170 -100q130 0 130 200t-130 200q-120 0 -170 -100v-200z" />
<glyph unicode="c" d="M200 500q0 500 500 500q199 0 299 -99l-75 -267q-112 66 -224 66q-200 0 -200 -200t200 -200q111 0 222 65l78 -265q-100 -100 -300 -100q-500 0 -500 500z" />
<glyph unicode="d" horiz-adv-x="1100" d="M200 500q0 500 380 500q120 0 220 -100v500h300v-1100q0 -100 100 -100l-10 -200q-289 0 -356 131q-116 -131 -254 -131q-380 0 -380 500zM500 500q0 -200 130 -200q120 0 170 100v200q-50 100 -170 100q-130 0 -130 -200z" />
<glyph unicode="e" horiz-adv-x="1052" d="M200 500q0 500 430 500q422 0 422 -533l-2 -67h-540q5 -150 140 -150q159 0 278 73l82 -223q-150 -100 -360 -100q-450 0 -450 500zM508 600h233q-7 150 -111 150q-114 0 -122 -150z" />
<glyph unicode="f" horiz-adv-x="800" d="M100 700v300h150q0 400 400 400q100 0 150 -17v-283h-130q-120 0 -120 -100h250v-300h-250v-700h-300v700h-150z" />
<glyph unicode="g" horiz-adv-x="1100" d="M200 500q0 500 380 500q120 0 220 -100v100h300v-900q0 -500 -550 -500q-150 0 -300 100l79 264q110 -64 221 -64q250 0 250 200q-100 -100 -220 -100q-380 0 -380 500zM500 500q0 -200 130 -200q120 0 170 100v200q-50 100 -170 100q-130 0 -130 -200z" />
<glyph unicode="h" horiz-adv-x="1100" d="M200 0v1400h300v-500q100 100 220 100q380 0 380 -450v-550h-300v550q0 150 -130 150q-120 0 -170 -100v-600h-300z" />
<glyph unicode="i" horiz-adv-x="500" d="M200 0v1000h300v-1000h-300zM200 1100v300h300v-300h-300z" />
<glyph unicode="j" horiz-adv-x="500" d="M-100 -80q63 -21 112 -21q188 0 188 201v900h300v-900q0 -495 -464 -495q-62 0 -136 15v300zM200 1100v300h300v-300h-300z" />
<glyph unicode="k" d="M200 0v1400h300v-740l240 340h360l-350 -470l350 -530h-360l-220 320l-20 -30v-290h-300z" />
<glyph unicode="l" horiz-adv-x="500" d="M200 0v1400h300v-1400h-300z" />
<glyph unicode="m" horiz-adv-x="1708" d="M198 0v1000h300v-100q50 100 220 100q143 0 230 -123q86 123 310 123q450 0 450 -500v-500h-300v500q0 200 -160 200q-150 0 -150 -200v-500h-300v500q0 200 -130 200q-120 0 -170 -100v-600h-300z" />
<glyph unicode="n" horiz-adv-x="1100" d="M200 0v1000h300v-100q100 100 220 100q380 0 380 -450v-550h-300v550q0 150 -130 150q-120 0 -170 -100v-600h-300z" />
<glyph unicode="o" horiz-adv-x="1100" d="M190 500q0 500 450 500q460 0 460 -500t-460 -500q-450 0 -450 500zM490 500q0 -200 150 -200q160 0 160 200t-160 200q-150 0 -150 -200z" />
<glyph unicode="p" horiz-adv-x="1088" d="M188 -400v1400h300v-100q100 100 220 100q380 0 380 -500t-380 -500q-120 0 -220 100v-500h-300zM488 400q50 -100 170 -100q130 0 130 200t-130 200q-120 0 -170 -100v-200z" />
<glyph unicode="q" horiz-adv-x="1100" d="M200 500q0 500 380 500q120 0 220 -100v100h300v-1400h-300v500q-100 -100 -220 -100q-380 0 -380 500zM500 500q0 -200 130 -200q120 0 170 100v200q-50 100 -170 100q-130 0 -130 -200z" />
<glyph unicode="r" horiz-adv-x="800" d="M200 0v1000h300v-100q100 100 300 100v-300q-200 0 -300 -100v-600h-300z" />
<glyph unicode="s" horiz-adv-x="996" d="M200 98l79 225q157 -73 287 -73t130 70q0 80 -100 80q-380 0 -380 300t410 300q250 0 350 -100l-81 -216q-125 66 -269 66q-110 0 -110 -70q0 -80 80 -80q400 0 400 -300t-430 -300q-217 0 -366 98z" />
<glyph unicode="t" horiz-adv-x="900" d="M200 700v300h150v300l300 100v-400h250v-300h-250v-260q0 -140 130 -140q80 0 120 20l50 -280q-90 -40 -170 -40q-430 0 -430 440v260h-150z" />
<glyph unicode="u" horiz-adv-x="1100" d="M200 450v550h300v-550q0 -150 130 -150q120 0 170 100v600h300v-700q0 -100 100 -100l-10 -200q-289 0 -356 131q-116 -131 -254 -131q-380 0 -380 450z" />
<glyph unicode="v" horiz-adv-x="900" d="M100 1000h300l143 -660l157 660h300l-261 -1000h-399z" />
<glyph unicode="w" horiz-adv-x="1500" d="M100 1000h300l129 -637l171 637h300l171 -637l129 637h300l-240 -1000h-370l-140 566l-140 -566h-370z" />
<glyph unicode="x" horiz-adv-x="1100" d="M200 0l235 500l-235 500h330l120 -329l120 329h330l-235 -500l235 -500h-330l-120 328l-120 -328h-330z" />
<glyph unicode="y" horiz-adv-x="900" d="M100 1000h300l144 -763l156 763h300l-350 -1400h-280l104 400h-154z" />
<glyph unicode="z" d="M200 0v300l400 400h-400v300h800v-300l-390 -400h390v-300h-800z" />
<glyph unicode="{" horiz-adv-x="900" d="M200 550v300q200 0 200 100v150q0 500 500 500v-300q-200 0 -200 -200v-200q0 -151 -150 -200q150 -50 150 -200v-200q0 -200 200 -200v-300q-500 0 -500 500v150q0 100 -200 100z" />
<glyph unicode="|" horiz-adv-x="500" d="M200 -200v1800h300v-1800h-300z" />
<glyph unicode="}" horiz-adv-x="900" d="M200 100q200 0 200 200v200q0 150 150 200q-150 49 -150 200v200q0 200 -200 200v300q500 0 500 -500v-150q0 -100 200 -100v-300q-200 0 -200 -100v-150q0 -500 -500 -500v300z" />
<glyph unicode="~" horiz-adv-x="1202" d="M200 550q0 400 266 400q158 0 247 -65t148 -65q91 0 106 130h235q0 -400 -266 -400q-159 0 -248 65t-147 65q-91 0 -106 -130h-235z" />
<glyph unicode="&#xa1;" horiz-adv-x="500" d="M200 -399v999h300v-999h-300zM200 700v300h300v-300h-300z" />
<glyph unicode="&#xa2;" d="M200 700q0 447 400 494v206h100v-200q200 0 300 -100l-82 -253q-109 53 -218 53v-400q108 0 216 52l84 -252q-100 -100 -300 -100v-200h-100v205q-400 48 -400 495zM500 700q0 -145 100 -190v380q-100 -45 -100 -190z" />
<glyph unicode="&#xa3;" horiz-adv-x="1200" d="M200 0v300h150v250h-150v300h150v50q0 500 500 500q200 0 300 -100l-89 -249q-106 49 -211 49q-200 0 -200 -200v-50h350v-300h-350v-250h150q186 0 317 56l83 -256q-100 -100 -400 -100h-600z" />
<glyph unicode="&#xa4;" horiz-adv-x="1350" d="M200 450v200h153v100h-153v200h173q96 450 577 450q250 0 400 -100l-83 -273q-159 73 -317 73q-183 0 -266 -150h466l-50 -200h-446v-100h406l-50 -200h-326q83 -150 266 -150q159 0 318 73l82 -273q-150 -100 -400 -100q-481 0 -577 450h-173z" />
<glyph unicode="&#xa5;" horiz-adv-x="1250" d="M200 1400h340l185 -450l185 450h340l-328 -700h278v-150h-325v-150h325v-150h-325v-250h-300v250h-325v150h325v150h-325v150h278z" />
<glyph unicode="&#xa6;" horiz-adv-x="500" d="M200 -200v800h300v-800h-300zM200 800v800h300v-800h-300z" />
<glyph unicode="&#xa8;" d="M200 1100v300h300v-300h-300zM700 1100v300h300v-300h-300z" />
<glyph unicode="&#xa9;" horiz-adv-x="1395" d="M200 698q0 247 175 422t423 175q247 0 422 -175t175 -422q0 -248 -175 -423t-422 -175q-248 0 -423 175t-175 423zM341 698q0 -189 134 -323t323 -134t323 134t134 323t-134 323t-323 134t-323 -134t-134 -323zM481 698q0 131 93 223.5t224 92.5t223 -93q68 -67 86 -154 h-147q-12 30 -38 55q-51 52 -124 52t-124.5 -51.5t-51.5 -124.5t51.5 -124.5t124.5 -51.5t124 51q28 28 40 61h146q-18 -91 -87 -160q-92 -93 -223 -93t-224 93t-93 224z" />
<glyph unicode="&#xab;" horiz-adv-x="1221" d="M200 700l257 500h310l-257 -500l260 -504h-310zM652 700l257 500h310l-257 -500l259 -504h-310z" />
<glyph unicode="&#xac;" d="M200 550v300h800v-550h-300v250h-500z" />
<glyph unicode="&#xad;" horiz-adv-x="800" d="M200 550v300h600v-300h-600z" />
<glyph unicode="&#xae;" horiz-adv-x="1395" d="M200 693q0 247 175 422t423 175q247 0 422 -175t175 -422q0 -248 -175 -423t-422 -175q-248 0 -423 175t-175 423zM341 693q0 -189 134 -323t323 -134t323 134t134 323t-134 323t-323 134t-323 -134t-134 -323zM546 376v633h302q211 0 211 -211q0 -136 -96 -185l96 -237 h-152l-82 211h-138v-211h-141zM687 728h161q70 0 70 70q0 71 -70 71h-161v-141z" />
<glyph unicode="&#xb0;" horiz-adv-x="700" d="M200 1150q0 51 19.5 96.5t53.5 79.5t79.5 54t97.5 20q51 0 96.5 -20t79.5 -54t54 -79.5t20 -96.5q0 -52 -20 -97.5t-54 -79.5t-79.5 -53.5t-96.5 -19.5q-52 0 -97.5 19.5t-79.5 53.5t-53.5 79.5t-19.5 97.5zM326 1150q0 -26 9.5 -48.5t26.5 -39.5t39.5 -26.5t48.5 -9.5 q25 0 48 10t40 26.5t27 39t10 48.5q0 25 -10 48t-27 40t-40 27t-48 10q-26 0 -48.5 -10t-39 -27t-26.5 -40t-10 -48z" />
<glyph unicode="&#xb1;" d="M200 0v300h800v-300h-800zM200 750v300h250v250h300v-250h250v-300h-250v-250h-300v250h-250z" />
<glyph unicode="&#xb4;" horiz-adv-x="600" d="M200 1100l100 300h300l-100 -300h-300z" />
<glyph unicode="&#xb5;" horiz-adv-x="1200" d="M200 -400v1400h300v-550q0 -150 130 -150q120 0 170 100v600h300v-700q0 -100 100 -100l-10 -200q-289 0 -356 131q-61 -129 -197 -129q-34 0 -73 8q-33 6 -64 18v-428h-300z" />
<glyph unicode="&#xb6;" horiz-adv-x="1300" d="M200 954q0 446 500 446h600v-1800h-200v1600h-200v-1600h-200v900q-500 0 -500 454z" />
<glyph unicode="&#xb7;" horiz-adv-x="500" d="M200 550v300h300v-300h-300z" />
<glyph unicode="&#xb8;" horiz-adv-x="650" d="M200 -360l30 140q80 -30 180 -30q60 0 60 40q0 50 -140 50v200h100v-100q220 0 220 -150q0 -190 -240 -190q-113 0 -210 40z" />
<glyph unicode="&#xbb;" horiz-adv-x="1221" d="M200 196l259 504l-257 500h310l257 -500l-259 -504h-310zM651 196l260 504l-257 500h310l257 -500l-260 -504h-310z" />
<glyph unicode="&#xbf;" horiz-adv-x="1100" d="M200 35q0 204 175 314.5t175 250.5h300q0 -250 -170 -350t-170 -220q0 -130 170 -130q179 0 337 73l83 -272v-1q-150 -100 -420 -100q-480 0 -480 435zM550 700v300h300v-300h-300z" />
<glyph unicode="&#xc0;" horiz-adv-x="1200" d="M100 0l350 1400h500l350 -1400h-310l-76 300h-429l-75 -300h-310zM433 1800h300l100 -300h-300zM562 600h275l-137 525z" />
<glyph unicode="&#xc1;" horiz-adv-x="1200" d="M100 0l350 1400h500l350 -1400h-310l-76 300h-429l-75 -300h-310zM562 600h275l-137 525zM567 1500l100 300h300l-100 -300h-300z" />
<glyph unicode="&#xc2;" horiz-adv-x="1200" d="M100 0l350 1400h500l350 -1400h-310l-76 300h-429l-75 -300h-310zM400 1500l150 300h300l150 -300h-230l-70 150l-70 -150h-230zM562 600h275l-137 525z" />
<glyph unicode="&#xc3;" horiz-adv-x="1200" d="M100 0l350 1400h500l350 -1400h-310l-76 300h-429l-75 -300h-310zM350 1500q0 279 186 279q110 0 172.5 -45t103.5 -45q63 0 74 90h164q0 -279 -186 -279q-111 0 -173 45.5t-103 45.5q-63 0 -74 -91h-164zM562 600h275l-137 525z" />
<glyph unicode="&#xc4;" horiz-adv-x="1200" d="M100 0l350 1400h500l350 -1400h-310l-76 300h-429l-75 -300h-310zM300 1500v300h300v-300h-300zM562 600h275l-137 525zM800 1500v300h300v-300h-300z" />
<glyph unicode="&#xc5;" horiz-adv-x="1200" d="M100 0l350 1400h500l350 -1400h-310l-76 300h-429l-75 -300h-310zM500 1700q0 41 16 77.5t43 63.5t63.5 43t77.5 16t77.5 -16t63.5 -43t43 -63.5t16 -77.5t-16 -77.5t-43 -63.5t-63.5 -43t-77.5 -16q-42 0 -78.5 15.5t-63.5 42.5t-42.5 63.5t-15.5 78.5zM562 600h275 l-137 525zM621 1700q0 -33 23 -56t56 -23t56.5 23t23.5 56t-23.5 56.5t-56.5 23.5t-56 -23.5t-23 -56.5z" />
<glyph unicode="&#xc6;" horiz-adv-x="1700" d="M100 0l400 1400h1200v-300h-500v-250h450v-300h-450v-250h500v-300h-800v300h-415l-85 -300h-300zM592 600h308v500h-177z" />
<glyph unicode="&#xc7;" horiz-adv-x="1200" d="M200 700q0 700 600 700q250 0 400 -100l-81 -274q-159 74 -319 74q-300 0 -300 -400t300 -400q159 0 318 73l82 -273q-149 -99 -395 -100v-60q220 0 220 -150q0 -190 -240 -190q-113 0 -210 40l30 140q80 -30 180 -30q60 0 60 40q0 50 -140 50v165q-505 53 -505 695z" />
<glyph unicode="&#xc8;" d="M200 0v1400h800v-300h-500v-250h450v-300h-450v-250h500v-300h-800zM333 1800h300l100 -300h-300z" />
<glyph unicode="&#xc9;" d="M200 0v1400h800v-300h-500v-250h450v-300h-450v-250h500v-300h-800zM467 1500l100 300h300l-100 -300h-300z" />
<glyph unicode="&#xca;" d="M200 0v1400h800v-300h-500v-250h450v-300h-450v-250h500v-300h-800zM300 1500l150 300h300l150 -300h-230l-70 150l-70 -150h-230z" />
<glyph unicode="&#xcb;" d="M200 0v1400h800v-300h-500v-250h450v-300h-450v-250h500v-300h-800zM200 1500v300h300v-300h-300zM700 1500v300h300v-300h-300z" />
<glyph unicode="&#xcc;" horiz-adv-x="500" d="M85 1800h300l100 -300h-300zM200 0v1400h300v-1400h-300z" />
<glyph unicode="&#xcd;" horiz-adv-x="500" d="M200 0v1400h300v-1400h-300zM217 1500l100 300h300l-100 -300h-300z" />
<glyph unicode="&#xce;" horiz-adv-x="500" d="M52 1500l150 300h300l150 -300h-230l-70 150l-70 -150h-230zM200 0v1400h300v-1400h-300z" />
<glyph unicode="&#xcf;" horiz-adv-x="500" d="M-48 1500v300h300v-300h-300zM200 0v1400h300v-1400h-300zM452 1500v300h300v-300h-300z" />
<glyph unicode="&#xd0;" horiz-adv-x="1300" d="M0 600v200h200v600h400q700 0 700 -700t-700 -700h-400v600h-200zM500 300h100q400 0 400 400t-400 400h-100v-300h200v-200h-200v-300z" />
<glyph unicode="&#xd1;" horiz-adv-x="1200" d="M200 0v1400h300l400 -770v770h300v-1400h-300l-400 770v-770h-300zM350 1500q0 279 186 279q110 0 172.5 -45t103.5 -45q63 0 74 90h164q0 -279 -186 -279q-111 0 -173 45.5t-103 45.5q-63 0 -74 -91h-164z" />
<glyph unicode="&#xd2;" horiz-adv-x="1400" d="M200 700q0 700 600 700t600 -700t-600 -700t-600 700zM500 700q0 -400 300 -400t300 400t-300 400t-300 -400zM533 1800h300l100 -300h-300z" />
<glyph unicode="&#xd3;" horiz-adv-x="1400" d="M200 700q0 700 600 700t600 -700t-600 -700t-600 700zM500 700q0 -400 300 -400t300 400t-300 400t-300 -400zM667 1500l100 300h300l-100 -300h-300z" />
<glyph unicode="&#xd4;" horiz-adv-x="1400" d="M200 700q0 700 600 700t600 -700t-600 -700t-600 700zM500 700q0 -400 300 -400t300 400t-300 400t-300 -400zM500 1500l150 300h300l150 -300h-230l-70 150l-70 -150h-230z" />
<glyph unicode="&#xd5;" horiz-adv-x="1400" d="M200 700q0 700 600 700t600 -700t-600 -700t-600 700zM450 1500q0 279 186 279q110 0 172.5 -45t103.5 -45q63 0 74 90h164q0 -279 -186 -279q-111 0 -173 45.5t-103 45.5q-63 0 -74 -91h-164zM500 700q0 -400 300 -400t300 400t-300 400t-300 -400z" />
<glyph unicode="&#xd6;" horiz-adv-x="1400" d="M200 700q0 700 600 700t600 -700t-600 -700t-600 700zM400 1500v300h300v-300h-300zM500 700q0 -400 300 -400t300 400t-300 400t-300 -400zM900 1500v300h300v-300h-300z" />
<glyph unicode="&#xd7;" horiz-adv-x="1119" d="M200 453l247 247l-247 247l212 213l248 -248l247 248l212 -213l-247 -247l247 -247l-212 -213l-247 248l-248 -248z" />
<glyph unicode="&#xd8;" horiz-adv-x="1400" d="M200 700q0 700 600 700q166 0 286 -54l106 170l170 -106l-114 -183q152 -175 152 -527q0 -700 -600 -700q-166 0 -286 53l-106 -169l-170 106l114 182q-152 175 -152 528zM500 700q0 -141 37 -232l382 612q-52 20 -119 20q-300 0 -300 -400zM680 320q53 -20 120 -20 q300 0 300 400q0 141 -37 232z" />
<glyph unicode="&#xd9;" horiz-adv-x="1200" d="M200 500v900h300v-900q0 -200 200 -200t200 200v900h300v-900q0 -500 -500 -500t-500 500zM433 1800h300l100 -300h-300z" />
<glyph unicode="&#xda;" horiz-adv-x="1200" d="M200 500v900h300v-900q0 -200 200 -200t200 200v900h300v-900q0 -500 -500 -500t-500 500zM567 1500l100 300h300l-100 -300h-300z" />
<glyph unicode="&#xdb;" horiz-adv-x="1200" d="M200 500v900h300v-900q0 -200 200 -200t200 200v900h300v-900q0 -500 -500 -500t-500 500zM400 1500l150 300h300l150 -300h-230l-70 150l-70 -150h-230z" />
<glyph unicode="&#xdc;" horiz-adv-x="1200" d="M200 500v900h300v-900q0 -200 200 -200t200 200v900h300v-900q0 -500 -500 -500t-500 500zM300 1500v300h300v-300h-300zM800 1500v300h300v-300h-300z" />
<glyph unicode="&#xdd;" horiz-adv-x="1250" d="M200 1400h340l185 -450l185 450h340l-375 -800v-600h-300v600zM592 1500l100 300h300l-100 -300h-300z" />
<glyph unicode="&#xde;" horiz-adv-x="1150" d="M200 0v1400h300v-250h200q450 0 450 -450t-450 -450h-200v-250h-300zM500 550h200q150 0 150 150t-150 150h-200v-300z" />
<glyph unicode="&#xdf;" horiz-adv-x="1220" d="M200 0v900q0 500 500 500q480 0 480 -400q0 -214 -138 -294q178 -73 178 -306q0 -400 -520 -400h-100v300h100q220 0 220 130q0 120 -192 120h-128v300h125q155 0 155 120q0 130 -180 130q-200 0 -200 -200v-900h-300z" />
<glyph unicode="&#xe0;" d="M200 300q0 300 250 300q200 0 250 -100v100q0 100 -130 100q-127 0 -242 -66l-78 266q150 100 320 100q430 0 430 -400v-300q0 -100 100 -100l-10 -200h-90q-200 0 -254 110q-96 -110 -296 -110q-250 0 -250 300zM400 1400h300l100 -300h-300zM500 300q0 -90 80 -90 q70 0 120 70v40q-50 70 -120 70q-80 0 -80 -90z" />
<glyph unicode="&#xe1;" d="M200 300q0 300 250 300q200 0 250 -100v100q0 100 -130 100q-127 0 -242 -66l-78 266q150 100 320 100q430 0 430 -400v-300q0 -100 100 -100l-10 -200h-90q-200 0 -254 110q-96 -110 -296 -110q-250 0 -250 300zM500 300q0 -90 80 -90q70 0 120 70v40q-50 70 -120 70 q-80 0 -80 -90zM500 1100l100 300h300l-100 -300h-300z" />
<glyph unicode="&#xe2;" d="M200 300q0 300 250 300q200 0 250 -100v100q0 100 -130 100q-127 0 -242 -66l-78 266q150 100 320 100q430 0 430 -400v-300q0 -100 100 -100l-10 -200h-90q-200 0 -254 110q-96 -110 -296 -110q-250 0 -250 300zM350 1100l150 300h300l150 -300h-230l-70 150l-70 -150 h-230zM500 300q0 -90 80 -90q70 0 120 70v40q-50 70 -120 70q-80 0 -80 -90z" />
<glyph unicode="&#xe3;" d="M200 300q0 300 250 300q200 0 250 -100v100q0 100 -130 100q-127 0 -242 -66l-78 266q150 100 320 100q430 0 430 -400v-300q0 -100 100 -100l-10 -200h-90q-200 0 -254 110q-96 -110 -296 -110q-250 0 -250 300zM300 1100q0 279 186 279q110 0 172.5 -45t103.5 -45 q63 0 74 90h164q0 -279 -186 -279q-111 0 -173 45.5t-103 45.5q-63 0 -74 -91h-164zM500 300q0 -90 80 -90q70 0 120 70v40q-50 70 -120 70q-80 0 -80 -90z" />
<glyph unicode="&#xe4;" d="M200 300q0 300 250 300q200 0 250 -100v100q0 100 -130 100q-127 0 -242 -66l-78 266q150 100 320 100q430 0 430 -400v-300q0 -100 100 -100l-10 -200h-90q-200 0 -254 110q-96 -110 -296 -110q-250 0 -250 300zM250 1100v300h300v-300h-300zM500 300q0 -90 80 -90 q70 0 120 70v40q-50 70 -120 70q-80 0 -80 -90zM750 1100v300h300v-300h-300z" />
<glyph unicode="&#xe5;" d="M200 300q0 300 250 300q200 0 250 -100v100q0 100 -130 100q-127 0 -242 -66l-78 266q150 100 320 100q430 0 430 -400v-300q0 -100 100 -100l-10 -200h-90q-200 0 -254 110q-96 -110 -296 -110q-250 0 -250 300zM450 1300q0 41 16 77.5t43 63.5t63.5 43t77.5 16 t77.5 -16t63.5 -43t43 -63.5t16 -77.5t-16 -77.5t-43 -63.5t-63.5 -43t-77.5 -16q-42 0 -78.5 15.5t-63.5 42.5t-42.5 63.5t-15.5 78.5zM500 300q0 -90 80 -90q70 0 120 70v40q-50 70 -120 70q-80 0 -80 -90zM571 1300q0 -33 23 -56t56 -23t56.5 23t23.5 56t-23.5 56.5 t-56.5 23.5t-56 -23.5t-23 -56.5z" />
<glyph unicode="&#xe6;" horiz-adv-x="1546" d="M100 300q0 300 250 300q200 0 250 -100v100q0 100 -130 100q-127 0 -243 -66l-77 266q150 100 320 100q259 0 341 -186q88 186 314 186q421 0 421 -512v-5l-1 -83h-531q0 -150 151 -150q134 0 247 72l83 -218v-4q-150 -100 -370 -100q-213 0 -329 155 q-120 -155 -396 -155q-300 0 -300 300zM400 300q0 -90 80 -90q70 0 120 70v40q-50 70 -120 70q-80 0 -80 -90zM1012 600h225v16q0 134 -112 134q-110 0 -113 -150z" />
<glyph unicode="&#xe7;" d="M200 500q0 500 500 500q199 0 299 -99l-75 -267q-112 66 -224 66q-200 0 -200 -200t200 -200q111 0 222 65l78 -265q-100 -100 -300 -100q-23 0 -45 1v-61q220 0 220 -150q0 -190 -240 -190q-113 0 -210 40l30 140q80 -30 180 -30q60 0 60 40q0 50 -140 50v172 q-355 66 -355 488z" />
<glyph unicode="&#xe8;" horiz-adv-x="1052" d="M200 500q0 500 430 500q422 0 422 -533l-2 -67h-540q5 -150 140 -150q159 0 278 73l82 -223q-150 -100 -360 -100q-450 0 -450 500zM400 1400h300l100 -300h-300zM508 600h233q-7 150 -111 150q-114 0 -122 -150z" />
<glyph unicode="&#xe9;" horiz-adv-x="1052" d="M200 500q0 500 430 500q422 0 422 -533l-2 -67h-540q5 -150 140 -150q159 0 278 73l82 -223q-150 -100 -360 -100q-450 0 -450 500zM493 1100l100 300h300l-100 -300h-300zM508 600h233q-7 150 -111 150q-114 0 -122 -150z" />
<glyph unicode="&#xea;" horiz-adv-x="1052" d="M200 500q0 500 430 500q422 0 422 -533l-2 -67h-540q5 -150 140 -150q159 0 278 73l82 -223q-150 -100 -360 -100q-450 0 -450 500zM326 1100l150 300h300l150 -300h-230l-70 150l-70 -150h-230zM508 600h233q-7 150 -111 150q-114 0 -122 -150z" />
<glyph unicode="&#xeb;" horiz-adv-x="1052" d="M200 500q0 500 430 500q422 0 422 -533l-2 -67h-540q5 -150 140 -150q159 0 278 73l82 -223q-150 -100 -360 -100q-450 0 -450 500zM226 1100v300h300v-300h-300zM508 600h233q-7 150 -111 150q-114 0 -122 -150zM726 1100v300h300v-300h-300z" />
<glyph unicode="&#xec;" horiz-adv-x="400" d="M0 1400h300l100 -300h-300zM100 0v1000h300v-1000h-300z" />
<glyph unicode="&#xed;" horiz-adv-x="400" d="M100 0v1000h300v-1000h-300zM100 1100l100 300h300l-100 -300h-300z" />
<glyph unicode="&#xee;" horiz-adv-x="400" d="M-48 1100l150 300h300l150 -300h-230l-70 150l-70 -150h-230zM100 0v1000h300v-1000h-300z" />
<glyph unicode="&#xef;" horiz-adv-x="400" d="M-148 1100v300h300v-300h-300zM100 0v1000h300v-1000h-300zM352 1100v300h300v-300h-300z" />
<glyph unicode="&#xf0;" horiz-adv-x="1100" d="M200 500q0 500 380 500q120 0 220 -100v200h-200v150h200v150h300v-150h200v-150h-200v-800q0 -100 100 -100l-10 -200q-289 0 -356 131q-116 -131 -254 -131q-380 0 -380 500zM500 500q0 -200 130 -200q120 0 170 100v200q-50 100 -170 100q-130 0 -130 -200z" />
<glyph unicode="&#xf1;" horiz-adv-x="1100" d="M200 0v1000h300v-100q100 100 220 100q380 0 380 -450v-550h-300v550q0 150 -130 150q-120 0 -170 -100v-600h-300zM300 1100q0 279 186 279q110 0 172.5 -45t103.5 -45q63 0 74 90h164q0 -279 -186 -279q-111 0 -173 45.5t-103 45.5q-63 0 -74 -91h-164z" />
<glyph unicode="&#xf2;" horiz-adv-x="1100" d="M190 500q0 500 450 500q460 0 460 -500t-460 -500q-450 0 -450 500zM400 1400h300l100 -300h-300zM490 500q0 -200 150 -200q160 0 160 200t-160 200q-150 0 -150 -200z" />
<glyph unicode="&#xf3;" horiz-adv-x="1100" d="M190 500q0 500 450 500q460 0 460 -500t-460 -500q-450 0 -450 500zM490 500q0 -200 150 -200q160 0 160 200t-160 200q-150 0 -150 -200zM500 1100l100 300h300l-100 -300h-300z" />
<glyph unicode="&#xf4;" horiz-adv-x="1100" d="M190 500q0 500 450 500q460 0 460 -500t-460 -500q-450 0 -450 500zM345 1100l150 300h300l150 -300h-230l-70 150l-70 -150h-230zM490 500q0 -200 150 -200q160 0 160 200t-160 200q-150 0 -150 -200z" />
<glyph unicode="&#xf5;" horiz-adv-x="1100" d="M190 500q0 500 450 500q460 0 460 -500t-460 -500q-450 0 -450 500zM295 1100q0 279 186 279q110 0 172.5 -45t103.5 -45q63 0 74 90h164q0 -279 -186 -279q-111 0 -173 45.5t-103 45.5q-63 0 -74 -91h-164zM490 500q0 -200 150 -200q160 0 160 200t-160 200 q-150 0 -150 -200z" />
<glyph unicode="&#xf6;" horiz-adv-x="1100" d="M190 500q0 500 450 500q460 0 460 -500t-460 -500q-450 0 -450 500zM245 1100v300h300v-300h-300zM490 500q0 -200 150 -200q160 0 160 200t-160 200q-150 0 -150 -200zM745 1100v300h300v-300h-300z" />
<glyph unicode="&#xf7;" d="M200 550v300h800v-300h-800zM450 100v300h300v-300h-300zM450 1000v300h300v-300h-300z" />
<glyph unicode="&#xf8;" horiz-adv-x="1100" d="M190 500q0 500 450 500q106 0 187 -27l109 174l170 -106l-111 -178q105 -125 105 -363q0 -500 -460 -500q-95 0 -170 22l-106 -169l-170 106l105 169q-109 125 -109 372zM490 500q0 -33 4 -61l162 260q-8 1 -16 1q-150 0 -150 -200zM643 300q157 2 157 200l-3 47z" />
<glyph unicode="&#xf9;" horiz-adv-x="1100" d="M200 450v550h300v-550q0 -150 130 -150q120 0 170 100v600h300v-700q0 -100 100 -100l-10 -200q-289 0 -356 131q-116 -131 -254 -131q-380 0 -380 450zM400 1400h300l100 -300h-300z" />
<glyph unicode="&#xfa;" horiz-adv-x="1100" d="M200 450v550h300v-550q0 -150 130 -150q120 0 170 100v600h300v-700q0 -100 100 -100l-10 -200q-289 0 -356 131q-116 -131 -254 -131q-380 0 -380 450zM500 1100l100 300h300l-100 -300h-300z" />
<glyph unicode="&#xfb;" horiz-adv-x="1100" d="M200 450v550h300v-550q0 -150 130 -150q120 0 170 100v600h300v-700q0 -100 100 -100l-10 -200q-289 0 -356 131q-116 -131 -254 -131q-380 0 -380 450zM350 1100l150 300h300l150 -300h-230l-70 150l-70 -150h-230z" />
<glyph unicode="&#xfc;" horiz-adv-x="1100" d="M200 450v550h300v-550q0 -150 130 -150q120 0 170 100v600h300v-700q0 -100 100 -100l-10 -200q-289 0 -356 131q-116 -131 -254 -131q-380 0 -380 450zM250 1100v300h300v-300h-300zM750 1100v300h300v-300h-300z" />
<glyph unicode="&#xfd;" horiz-adv-x="900" d="M100 1000h300l144 -763l156 763h300l-350 -1400h-280l104 400h-154zM400 1100l100 300h300l-100 -300h-300z" />
<glyph unicode="&#xfe;" horiz-adv-x="1050" d="M100 -400v1800h300v-500q100 100 250 100q400 0 400 -500t-400 -500q-150 0 -250 100v-500h-300zM400 400q50 -100 200 -100t150 200t-150 200t-200 -100v-200z" />
<glyph unicode="&#xff;" horiz-adv-x="900" d="M100 1000h300l144 -763l156 763h300l-350 -1400h-280l104 400h-154zM152 1100v300h300v-300h-300zM652 1100v300h300v-300h-300z" />
<glyph unicode="&#x152;" horiz-adv-x="1900" d="M200 700q0 700 550 700q226 0 350 -144v144h800v-300h-500v-250h450v-300h-450v-250h500v-300h-800v143q-124 -143 -350 -143q-550 0 -550 700zM500 700q0 -400 300 -400t300 400t-300 400t-300 -400z" />
<glyph unicode="&#x153;" horiz-adv-x="1653" d="M100 500q0 500 450 500q258 0 350 -160q91 160 330 160q423 0 423 -504l-3 -96h-540q5 -140 130 -140q19 -1 37 -1q145 0 243 71l90 -230q-137 -101 -334 -101q-18 0 -36 1q-236 0 -337 165q-90 -165 -353 -165q-450 0 -450 500zM400 500q0 -200 180 -200q170 0 170 200 t-170 200q-180 0 -180 -200zM1108 600h233q-7 150 -111 150q-114 0 -122 -150z" />
<glyph unicode="&#x178;" horiz-adv-x="1250" d="M200 1400h340l185 -450l185 450h340l-375 -800v-600h-300v600zM325 1500v300h300v-300h-300zM825 1500v300h300v-300h-300z" />
<glyph unicode="&#x2c6;" horiz-adv-x="800" d="M200 1100l150 300h300l150 -300h-230l-70 150l-70 -150h-230z" />
<glyph unicode="&#x2dc;" horiz-adv-x="900" d="M200 1100q0 279 186 279q110 0 172.5 -45t103.5 -45q63 0 74 90h164q0 -279 -186 -279q-111 0 -173 45.5t-103 45.5q-63 0 -74 -91h-164z" />
<glyph unicode="&#x2000;" horiz-adv-x="950" />
<glyph unicode="&#x2001;" horiz-adv-x="1900" />
<glyph unicode="&#x2002;" horiz-adv-x="950" />
<glyph unicode="&#x2003;" horiz-adv-x="1900" />
<glyph unicode="&#x2004;" horiz-adv-x="633" />
<glyph unicode="&#x2005;" horiz-adv-x="475" />
<glyph unicode="&#x2006;" horiz-adv-x="316" />
<glyph unicode="&#x2007;" horiz-adv-x="316" />
<glyph unicode="&#x2008;" horiz-adv-x="237" />
<glyph unicode="&#x2009;" horiz-adv-x="380" />
<glyph unicode="&#x200a;" horiz-adv-x="105" />
<glyph unicode="&#x2010;" horiz-adv-x="800" d="M200 550v300h600v-300h-600z" />
<glyph unicode="&#x2011;" horiz-adv-x="800" d="M200 550v300h600v-300h-600z" />
<glyph unicode="&#x2012;" horiz-adv-x="800" d="M200 550v300h600v-300h-600z" />
<glyph unicode="&#x2013;" horiz-adv-x="800" d="M200 550v300h600v-300h-600z" />
<glyph unicode="&#x2014;" d="M200 550v300h800v-300h-800z" />
<glyph unicode="&#x2018;" horiz-adv-x="500" d="M200 900v250q0 250 300 250v-100q-120 0 -120 -150h120v-250h-300z" />
<glyph unicode="&#x2019;" horiz-adv-x="500" d="M200 900v100q120 0 120 150h-120v250h300v-250q0 -250 -300 -250z" />
<glyph unicode="&#x201a;" horiz-adv-x="500" d="M200 50v250h300v-250q0 -250 -300 -250v100q120 0 120 150h-120z" />
<glyph unicode="&#x201c;" horiz-adv-x="900" d="M200 900v250q0 250 300 250v-100q-120 0 -120 -150h120v-250h-300zM600 900v250q0 250 300 250v-100q-120 0 -120 -150h120v-250h-300z" />
<glyph unicode="&#x201d;" horiz-adv-x="900" d="M200 900v100q120 0 120 150h-120v250h300v-250q0 -250 -300 -250zM600 900v100q120 0 120 150h-120v250h300v-250q0 -250 -300 -250z" />
<glyph unicode="&#x201e;" horiz-adv-x="900" d="M200 50v250h300v-250q0 -250 -300 -250v100q120 0 120 150h-120zM600 50v250h300v-250q0 -250 -300 -250v100q120 0 120 150h-120z" />
<glyph unicode="&#x2022;" horiz-adv-x="600" d="M200 700q0 83 58.5 141.5t141.5 58.5t141.5 -58.5t58.5 -141.5t-58.5 -141.5t-141.5 -58.5t-141.5 58.5t-58.5 141.5z" />
<glyph unicode="&#x2026;" horiz-adv-x="1500" d="M200 0v300h300v-300h-300zM700 0v300h300v-300h-300zM1200 0v300h300v-300h-300z" />
<glyph unicode="&#x202f;" horiz-adv-x="380" />
<glyph unicode="&#x2039;" horiz-adv-x="770" d="M200 700l257 500h310l-257 -500l260 -504h-310z" />
<glyph unicode="&#x203a;" horiz-adv-x="770" d="M200 196l260 504l-257 500h310l257 -500l-260 -504h-310z" />
<glyph unicode="&#x205f;" horiz-adv-x="475" />
<glyph unicode="&#x20ac;" horiz-adv-x="1350" d="M200 450v200h153v100h-153v200h173q96 450 577 450q250 0 400 -100l-83 -273q-159 73 -317 73q-183 0 -266 -150h466l-50 -200h-446v-100h406l-50 -200h-326q83 -150 266 -150q159 0 318 73l82 -273q-150 -100 -400 -100q-481 0 -577 450h-173z" />
<glyph unicode="&#x2122;" horiz-adv-x="1294" d="M200 1274v126h429v-126h-151v-463h-135v463h-143zM705 811v589h210l84 -421l85 421h210v-589h-126v421l-84 -421h-169l-84 421v-421h-126z" />
<glyph unicode="&#x25fc;" d="M0 0v1000h1000v-1000h-1000z" />
</font>
</defs>
</svg>
