<?xml version="1.0" standalone="no"?>
<!DOCTYPE svg PUBLIC "-//W3C//DTD SVG 1.1//EN" "http://www.w3.org/Graphics/SVG/1.1/DTD/svg11.dtd" >
<svg xmlns="http://www.w3.org/2000/svg">
<metadata></metadata>
<defs>
<font id="tepeno_sansregular" horiz-adv-x="1000" >
<font-face units-per-em="2048" ascent="1638" descent="-410" />
<missing-glyph horiz-adv-x="400" />
<glyph horiz-adv-x="2048" />
<glyph horiz-adv-x="2048" />
<glyph unicode="&#xd;" horiz-adv-x="2048" />
<glyph unicode=" "  horiz-adv-x="400" />
<glyph unicode="&#x09;" horiz-adv-x="400" />
<glyph unicode="&#xa0;" horiz-adv-x="400" />
<glyph unicode="!" horiz-adv-x="400" d="M200 0v200h200v-200h-200zM200 400v1000h200v-1000h-200z" />
<glyph unicode="&#x22;" horiz-adv-x="700" d="M200 1000v100q70 0 70 100h-70v200h200v-200q0 -200 -200 -200zM500 1000v100q70 0 70 100h-70v200h200v-200q0 -200 -200 -200z" />
<glyph unicode="#" horiz-adv-x="1400" d="M200 300v200h207l86 400h-193v200h236l64 300h200l-64 -300h300l64 300h200l-64 -300h164v-200h-207l-86 -400h193v-200h-236l-64 -300h-200l64 300h-300l-64 -300h-200l64 300h-164zM607 500h300l86 400h-300z" />
<glyph unicode="$" horiz-adv-x="1150" d="M200 100l63 174q179 -71 367 -74v409q-410 67 -410 391q0 370 410 397v203h100v-201q229 -5 370 -99l-60 -174q-165 68 -310 73v-403q420 -58 420 -396q0 -367 -420 -398v-202h-100v200q-285 3 -430 100zM420 1000q0 -130 210 -185v381q-210 -23 -210 -196zM730 204 q220 24 220 196q0 140 -220 193v-389z" />
<glyph unicode="%" horiz-adv-x="1900" d="M200 1000q0 400 350 400t350 -400t-350 -400t-350 400zM380 1000q0 -220 170 -220t170 220t-170 220t-170 -220zM650 0l600 1400h200l-600 -1400h-200zM1200 400q0 400 350 400t350 -400t-350 -400t-350 400zM1380 400q0 -220 170 -220t170 220t-170 220t-170 -220z" />
<glyph unicode="&#x26;" horiz-adv-x="1220" d="M200 400q0 223 202 299q-202 77 -202 301q0 400 450 400q250 0 380 -100l-77 -171q-136 71 -303 71q-250 0 -250 -200q0 -201 312 -201l208 1v150h200v-150h100v-200h-100v-300q0 -100 100 -100l-10 -200q-173 0 -245 111q-110 -111 -315 -111q-450 0 -450 400zM400 400 q0 -200 250 -200q178 0 270 73v327h-212q-308 0 -308 -200z" />
<glyph unicode="'" horiz-adv-x="400" d="M200 1000v100q70 0 70 100h-70v200h200v-200q0 -200 -200 -200z" />
<glyph unicode="(" horiz-adv-x="648" d="M200 700q0 500 300 900l148 -74q-248 -371 -248 -826t248 -827l-148 -73q-300 400 -300 900z" />
<glyph unicode=")" horiz-adv-x="648" d="M200 -127q248 372 248 827t-248 826l148 74q300 -400 300 -900t-300 -900z" />
<glyph unicode="*" horiz-adv-x="840" d="M200 1260l40 150l190 -50v190h170v-190l200 50l40 -150l-180 -50l130 -180l-130 -80l-140 170l-140 -170l-130 80l130 180z" />
<glyph unicode="+" d="M200 600v200h300v300h200v-300h300v-200h-300v-300h-200v300h-300z" />
<glyph unicode="," horiz-adv-x="400" d="M200 0v200h200v-200q0 -200 -200 -200v100q70 0 70 100h-70z" />
<glyph unicode="-" horiz-adv-x="800" d="M200 600v200h600v-200h-600z" />
<glyph unicode="." horiz-adv-x="400" d="M200 0v200h200v-200h-200z" />
<glyph unicode="/" horiz-adv-x="700" d="M100 -200l500 1800h199l-499 -1800h-200z" />
<glyph unicode="0" horiz-adv-x="1200" d="M200 700q0 700 500 700t500 -700t-500 -700t-500 700zM400 700q0 -500 300 -500t300 500t-300 500t-300 -500z" />
<glyph unicode="1" horiz-adv-x="600" d="M200 1100v200l250 100h150v-1400h-200v1150z" />
<glyph unicode="2" horiz-adv-x="1100" d="M200 0v200q0 450 410 530q270 50 270 250q0 220 -260 220q-160 0 -320 -74l-80 174q150 100 400 100q460 0 460 -420q0 -370 -420 -440q-260 -60 -260 -340h700v-200h-900z" />
<glyph unicode="3" horiz-adv-x="1050" d="M200 100l82 172q149 -72 268 -72q300 0 300 200t-410 200h-35l-5 200h40q410 0 410 200t-300 200q-116 0 -249 -70l-81 170q130 100 330 100q500 0 500 -400q0 -224 -203 -301q203 -76 203 -299q0 -400 -500 -400q-200 0 -350 100z" />
<glyph unicode="4" horiz-adv-x="1200" d="M200 400v200l530 800h270v-800h200v-200h-200v-400h-200v400h-600zM440 600h360v550z" />
<glyph unicode="5" horiz-adv-x="1100" d="M200 100l82 173q159 -73 318 -73q300 0 300 250t-300 250q-200 0 -380 -100v800h830v-200h-630v-316q80 16 180 16q500 0 500 -450t-500 -450q-250 0 -400 100z" />
<glyph unicode="6" horiz-adv-x="1200" d="M200 700q0 700 560 700q200 0 350 -100l-80 -173q-151 73 -270 73q-321 0 -356 -396q110 96 306 96q490 0 490 -450t-490 -450q-510 0 -510 700zM403 602q29 -402 307 -402q290 0 290 250t-290 250q-149 0 -307 -98z" />
<glyph unicode="7" horiz-adv-x="1100" d="M200 1200v200h900v-200q-450 -500 -450 -1200h-200q0 700 410 1200h-660z" />
<glyph unicode="8" horiz-adv-x="1140" d="M200 400q0 221 188 302q-168 84 -168 298q0 400 450 400t450 -400q0 -214 -169 -298q189 -81 189 -302q0 -400 -470 -400t-470 400zM400 400q0 -200 270 -200t270 200t-270 200t-270 -200zM420 1000q0 -200 250 -200t250 200t-250 200t-250 -200z" />
<glyph unicode="9" horiz-adv-x="1200" d="M200 950q0 450 490 450q510 0 510 -700t-560 -700q-200 0 -350 100l80 173q151 -73 270 -73q321 0 356 396q-110 -96 -306 -96q-490 0 -490 450zM400 950q0 -250 290 -250q149 0 307 98q-29 402 -307 402q-290 0 -290 -250z" />
<glyph unicode=":" horiz-adv-x="400" d="M200 0v200h200v-200h-200zM200 800v200h200v-200h-200z" />
<glyph unicode=";" horiz-adv-x="400" d="M200 0v200h200v-200q0 -200 -200 -200v100q70 0 70 100h-70zM200 800v200h200v-200h-200z" />
<glyph unicode="&#x3c;" d="M200 580v240l800 380v-220l-550 -280l550 -280v-220z" />
<glyph unicode="=" d="M200 400v200h800v-200h-800zM200 800v200h800v-200h-800z" />
<glyph unicode="&#x3e;" d="M200 200v220l550 280l-550 280v220l800 -380v-240z" />
<glyph unicode="?" horiz-adv-x="1060" d="M200 1299v1q150 100 400 100q460 0 460 -380q0 -260 -210 -365t-210 -255h-200q0 270 210 360t210 260q0 180 -260 180q-159 0 -317 -73zM440 0v200h200v-200h-200z" />
<glyph unicode="@" horiz-adv-x="1800" d="M200 450q0 950 800 950t800 -900q0 -500 -300 -500q-182 0 -254 110q-153 -110 -296 -110q-350 0 -350 300t350 300q150 0 250 -100v100q0 200 -230 200q-127 0 -242 -66l-78 166q150 100 320 100q430 0 430 -400v-300q0 -100 100 -100t100 300q0 700 -600 700t-600 -750 q0 -650 600 -650q160 0 320 74l80 -174q-150 -100 -400 -100q-800 0 -800 850zM800 300q0 -130 150 -130t250 70v120q-100 70 -250 70t-150 -130z" />
<glyph unicode="A" horiz-adv-x="1100" d="M100 0l400 1400h300l400 -1400h-200l-86 300h-529l-85 -300h-200zM442 500h415l-207 725z" />
<glyph unicode="B" horiz-adv-x="1150" d="M200 0v1400h550v-2q350 -24 350 -398q0 -202 -133 -287q183 -77 183 -313q0 -400 -400 -400h-550zM400 200h350q200 0 200 200t-200 200h-350v-400zM400 800h310q190 5 190 200q0 200 -200 200h-300v-400z" />
<glyph unicode="C" horiz-adv-x="1200" d="M200 700q0 700 600 700q250 0 400 -100l-81 -174q-159 74 -319 74q-400 0 -400 -500t400 -500q159 0 318 73l82 -173q-150 -100 -400 -100q-600 0 -600 700z" />
<glyph unicode="D" horiz-adv-x="1300" d="M200 0v1400h400q700 0 700 -700t-700 -700h-400zM400 200h200q500 0 500 500t-500 500h-200v-1000z" />
<glyph unicode="E" d="M200 0v1400h800v-200h-600v-400h550v-200h-550v-400h600v-200h-800z" />
<glyph unicode="F" d="M200 0v1400h800v-200h-600v-400h550v-200h-550v-600h-200z" />
<glyph unicode="G" horiz-adv-x="1250" d="M200 700q0 700 600 700q250 0 400 -100l-80 -174q-160 74 -320 74q-400 0 -400 -500t400 -500q125 0 250 58v342h-350v200h550v-650q-200 -150 -450 -150q-600 0 -600 700z" />
<glyph unicode="H" horiz-adv-x="1200" d="M200 0v1400h200v-600h600v600h200v-1400h-200v600h-600v-600h-200z" />
<glyph unicode="I" horiz-adv-x="400" d="M200 0v1400h200v-1400h-200z" />
<glyph unicode="J" horiz-adv-x="700" d="M200 0v200q300 0 300 300v900h200v-900q0 -500 -500 -500z" />
<glyph unicode="K" horiz-adv-x="1200" d="M200 0v1400h200v-620l520 620h280l-581 -654l631 -746h-250l-513 598l-87 -98v-500h-200z" />
<glyph unicode="L" d="M200 0v1400h200v-1200h600v-200h-800z" />
<glyph unicode="M" horiz-adv-x="1400" d="M200 0v1400h210l390 -720l390 720h210v-1400h-200v1020l-336 -621h-128l-336 621v-1020h-200z" />
<glyph unicode="N" horiz-adv-x="1200" d="M200 0v1400h200l600 -1020v1020h200v-1400h-200l-600 1020v-1020h-200z" />
<glyph unicode="O" horiz-adv-x="1400" d="M200 700q0 700 600 700t600 -700t-600 -700t-600 700zM400 700q0 -500 400 -500t400 500t-400 500t-400 -500z" />
<glyph unicode="P" horiz-adv-x="1150" d="M200 0v1400h500q450 0 450 -450q0 -400 -450 -400h-300v-550h-200zM400 750h300q250 0 250 200q0 250 -250 250h-300v-450z" />
<glyph unicode="Q" horiz-adv-x="1400" d="M200 700q0 700 600 700t600 -700q0 -554 -376 -670l308 -80l-51 -194l-581 152l25 95q-525 42 -525 697zM400 700q0 -500 400 -500t400 500t-400 500t-400 -500z" />
<glyph unicode="R" horiz-adv-x="1200" d="M200 0v1400h550q400 0 400 -430q0 -254 -178 -331q179 -63 179 -254v-11q0 -276 49 -374h-200q-49 98 -49 316v11q0 223 -199 223h-352v-550h-200zM400 750h350q200 0 200 220q0 230 -200 230h-350v-450z" />
<glyph unicode="S" horiz-adv-x="1149" d="M200 99l52 175q198 -74 397 -74q300 0 300 200q0 150 -250 200q-480 50 -480 400q0 400 480 400q250 0 400 -100v-4l-48 -171q-191 75 -352 75q-280 0 -280 -200q0 -150 280 -200q450 -50 450 -400q0 -400 -500 -400q-299 0 -449 99z" />
<glyph unicode="T" horiz-adv-x="1100" d="M200 1200v200h900v-200h-350v-1200h-200v1200h-350z" />
<glyph unicode="U" horiz-adv-x="1200" d="M200 500v900h200v-900q0 -300 300 -300t300 300v900h200v-900q0 -500 -500 -500t-500 500z" />
<glyph unicode="V" horiz-adv-x="1100" d="M100 1400h200l350 -1225l350 1225h200l-400 -1400h-300z" />
<glyph unicode="W" horiz-adv-x="1600" d="M100 1400h200l214 -1000l286 1000h200l285 -1000l215 1000h200l-300 -1400h-200l-300 1050l-300 -1050h-200z" />
<glyph unicode="X" horiz-adv-x="1250" d="M200 0l405 700l-405 700h240l285 -493l285 493h240l-405 -700l405 -700h-240l-285 492l-285 -492h-240z" />
<glyph unicode="Y" horiz-adv-x="1100" d="M100 1400h240l285 -600l285 600h240l-425 -800v-600h-200v600z" />
<glyph unicode="Z" horiz-adv-x="1100" d="M200 0v200l660 1000h-660v200h900v-200l-660 -1000h660v-200h-900z" />
<glyph unicode="[" horiz-adv-x="600" d="M200 -200v1800h400v-200h-200v-1400h200v-200h-400z" />
<glyph unicode="\" horiz-adv-x="700" d="M100 1600h199l500 -1800h-200z" />
<glyph unicode="]" horiz-adv-x="600" d="M200 0h200v1400h-200v200h400v-1800h-400v200z" />
<glyph unicode="^" d="M200 950l300 450h200l300 -450h-200l-200 300l-200 -300h-200z" />
<glyph unicode="_" horiz-adv-x="800" d="M0 -250h800v-150h-800v150z" />
<glyph unicode="`" horiz-adv-x="500" d="M200 1400h200l100 -300h-200z" />
<glyph unicode="a" d="M200 300q0 300 350 300q150 0 250 -100v100q0 200 -230 200q-127 0 -242 -66l-78 166q150 100 320 100q430 0 430 -400v-300q0 -100 100 -100l-10 -200q-172 0 -244 110q-153 -110 -296 -110q-350 0 -350 300zM400 300q0 -130 150 -130t250 70v120q-100 70 -250 70 t-150 -130z" />
<glyph unicode="b" horiz-adv-x="1050" d="M200 0v1400h200v-500q100 100 250 100q400 0 400 -500t-400 -500q-150 0 -250 100v-100h-200zM400 300q50 -100 250 -100t200 300t-200 300t-250 -100v-400z" />
<glyph unicode="c" d="M200 500q0 500 500 500q199 0 299 -99l-75 -167q-112 66 -224 66q-300 0 -300 -300t300 -300q111 0 222 65l78 -165q-100 -100 -300 -100q-500 0 -500 500z" />
<glyph unicode="d" horiz-adv-x="1048" d="M200 500q0 500 400 500q150 0 250 -100v500h200v-1100q0 -100 100 -100l-10 -200q-189 0 -256 131q-116 -131 -284 -131q-400 0 -400 500zM400 500q0 -300 200 -300t250 100v400q-50 100 -250 100t-200 -300z" />
<glyph unicode="e" horiz-adv-x="1053" d="M200 500q0 500 440 500q411 0 411 -543q0 -28 -1 -57h-640q35 -200 240 -200q156 0 320 50l30 -189q-138 -61 -350 -61q-450 0 -450 500zM408 580h443q-7 220 -211 220q-224 0 -232 -220z" />
<glyph unicode="f" horiz-adv-x="800" d="M200 800v200h150v100q0 300 300 300q130 0 200 -70l-73 -158q-61 28 -127 28q-100 0 -100 -100v-100h250v-200h-250v-800h-200v800h-150z" />
<glyph unicode="g" horiz-adv-x="1050" d="M200 500q0 500 400 500q150 0 250 -100v100h200v-1000q0 -400 -450 -400q-150 0 -300 100l79 164q110 -64 221 -64q250 0 250 200v100q-100 -100 -250 -100q-400 0 -400 500zM400 500q0 -300 200 -300t250 100v400q-50 100 -250 100t-200 -300z" />
<glyph unicode="h" horiz-adv-x="1050" d="M200 0v1400h200v-500q100 100 250 100q400 0 400 -500v-500h-200v500q0 300 -200 300q-150 0 -250 -100v-700h-200z" />
<glyph unicode="i" horiz-adv-x="400" d="M200 0v1000h200v-1000h-200zM200 1200v200h200v-200h-200z" />
<glyph unicode="j" horiz-adv-x="400" d="M-100 -180q63 -21 112 -21q188 0 188 301v900h200v-900q0 -495 -364 -495q-62 0 -136 15v200zM200 1200v200h200v-200h-200z" />
<glyph unicode="k" horiz-adv-x="900" d="M200 0v1400h200v-790l340 390h260l-430 -500l430 -500h-260l-320 390l-20 -20v-370h-200z" />
<glyph unicode="l" horiz-adv-x="400" d="M200 0v1400h200v-1400h-200z" />
<glyph unicode="m" horiz-adv-x="1560" d="M200 0v1000h200v-100q100 100 220 100q193 0 280 -123q86 123 280 123q380 0 380 -400v-600h-200v600q0 200 -180 200t-180 -200v-600h-200v600q0 200 -180 200q-120 0 -220 -100v-700h-200z" />
<glyph unicode="n" d="M200 0v1000h200v-100q100 100 220 100q380 0 380 -400v-600h-200v600q0 200 -180 200q-120 0 -220 -100v-700h-200z" />
<glyph unicode="o" horiz-adv-x="1051" d="M200 500q0 500 430 500q420 0 420 -500t-420 -500q-430 0 -430 500zM400 500q0 -300 230 -300q220 0 220 300t-220 300q-230 0 -230 -300z" />
<glyph unicode="p" horiz-adv-x="1050" d="M200 -400v1400h200v-100q100 100 250 100q400 0 400 -500t-400 -500q-150 0 -250 100v-500h-200zM400 300q50 -100 250 -100t200 300t-200 300t-250 -100v-400z" />
<glyph unicode="q" horiz-adv-x="1050" d="M200 500q0 500 400 500q150 0 250 -100v100h200v-1400h-200v500q-100 -100 -250 -100q-400 0 -400 500zM400 500q0 -300 200 -300t250 100v400q-50 100 -250 100t-200 -300z" />
<glyph unicode="r" horiz-adv-x="700" d="M200 0v1000h200v-100q100 100 300 100v-200q-200 0 -300 -100v-700h-200z" />
<glyph unicode="s" horiz-adv-x="996" d="M200 98l49 175q187 -73 337 -73q210 0 210 100t-200 100q-380 0 -380 300t390 300q240 0 350 -100l-51 -166q-165 66 -299 66q-190 0 -190 -100t180 -100q400 0 400 -300t-410 -300q-237 0 -386 98z" />
<glyph unicode="t" horiz-adv-x="848" d="M200 800v200h150v300l200 100v-400h300v-200h-300v-500q0 -100 130 -100q100 0 170 40l50 -160q-120 -80 -220 -80q-330 0 -330 300v500h-150z" />
<glyph unicode="u" d="M200 400v600h200v-600q0 -200 180 -200q128 0 220 73v727h200v-700q0 -100 100 -100l-10 -200q-173 0 -245 111q-110 -111 -265 -111q-380 0 -380 400z" />
<glyph unicode="v" horiz-adv-x="900" d="M100 1000h200l243 -760l257 760h200l-341 -1000h-239z" />
<glyph unicode="w" horiz-adv-x="1300" d="M100 1000h200l159 -637l191 637h200l191 -637l159 637h200l-250 -1000h-200l-200 666l-200 -666h-200z" />
<glyph unicode="x" horiz-adv-x="1100" d="M200 0l335 500l-335 500h230l220 -329l220 329h230l-335 -500l335 -500h-230l-220 328l-220 -328h-230z" />
<glyph unicode="y" horiz-adv-x="900" d="M100 1000h200l244 -763l256 763h200l-470 -1400h-200l134 400h-44z" />
<glyph unicode="z" d="M200 0v200l540 600h-540v200h800v-200l-530 -600h530v-200h-800z" />
<glyph unicode="{" horiz-adv-x="800" d="M200 600v200q200 0 200 100v300q0 400 400 400v-200q-200 0 -200 -200v-300q0 -151 -150 -200q150 -50 150 -200v-300q0 -200 200 -200v-200q-400 0 -400 400v300q0 100 -200 100z" />
<glyph unicode="|" horiz-adv-x="400" d="M200 -200v1800h200v-1800h-200z" />
<glyph unicode="}" horiz-adv-x="800" d="M200 0q200 0 200 200v300q0 151 150 200q-150 50 -150 200v300q0 200 -200 200v200q400 0 400 -400v-300q0 -100 200 -100v-200q-200 0 -200 -100v-300q0 -400 -400 -400v200z" />
<glyph unicode="~" horiz-adv-x="1002" d="M200 550q0 300 266 300q58 0 147 -65t148 -65q91 0 106 130h135q0 -300 -266 -300q-59 0 -148 65t-147 65q-91 0 -106 -130h-135z" />
<glyph unicode="&#xa1;" horiz-adv-x="400" d="M200 -399v999h200v-999h-200zM200 800v200h200v-200h-200z" />
<glyph unicode="&#xa2;" d="M200 700q0 447 400 494v206h100v-200q200 0 300 -100l-77 -175q-112 75 -223 75v-600q111 0 223 75l77 -175q-100 -100 -300 -100v-200h-100v205q-400 48 -400 495zM400 700q0 -245 200 -290v580q-200 -45 -200 -290z" />
<glyph unicode="&#xa3;" horiz-adv-x="1200" d="M200 0v200h150v400h-150v200h150v100q0 500 500 500q200 0 300 -100l-76 -156q-112 56 -224 56q-300 0 -300 -300v-100h450v-200h-450v-400h250q186 0 326 65l74 -165q-100 -100 -400 -100h-600z" />
<glyph unicode="&#xa4;" horiz-adv-x="1350" d="M200 450v150h153q-3 48 -3 100t3 100h-153v150h173q96 450 577 450q250 0 400 -100l-83 -173q-159 73 -317 73q-283 0 -366 -250h566l-50 -150h-546q-4 -47 -4 -100t4 -100h496l-50 -150h-416q83 -250 366 -250q159 0 318 73l82 -173q-150 -100 -400 -100 q-481 0 -577 450h-173z" />
<glyph unicode="&#xa5;" horiz-adv-x="1100" d="M100 1400h240l285 -600l285 600h240l-372 -700h322v-150h-375v-150h375v-150h-375v-250h-200v250h-375v150h375v150h-375v150h322z" />
<glyph unicode="&#xa6;" horiz-adv-x="400" d="M200 -200v800h200v-800h-200zM200 800v800h200v-800h-200z" />
<glyph unicode="&#xa8;" horiz-adv-x="800" d="M200 1100v200h200v-200h-200zM600 1100v200h200v-200h-200z" />
<glyph unicode="&#xa9;" horiz-adv-x="1395" d="M200 698q0 247 175 422t423 175q247 0 422 -175t175 -422q0 -248 -175 -423t-422 -175q-248 0 -423 175t-175 423zM341 698q0 -189 134 -323t323 -134t323 134t134 323t-134 323t-323 134t-323 -134t-134 -323zM481 698q0 131 93 223.5t224 92.5t223 -93q68 -67 86 -154 h-147q-12 30 -38 55q-51 52 -124 52t-124.5 -51.5t-51.5 -124.5t51.5 -124.5t124.5 -51.5t124 51q28 28 40 61h146q-18 -91 -87 -160q-92 -93 -223 -93t-224 93t-93 224z" />
<glyph unicode="&#xab;" horiz-adv-x="1221" d="M200 700l327 500h240l-327 -500l330 -504h-240zM652 700l327 500h240l-327 -500l329 -504h-240z" />
<glyph unicode="&#xac;" d="M200 600v200h800v-500h-200v300h-600z" />
<glyph unicode="&#xad;" horiz-adv-x="800" d="M200 600v200h600v-200h-600z" />
<glyph unicode="&#xae;" horiz-adv-x="1395" d="M200 693q0 247 175 422t423 175q247 0 422 -175t175 -422q0 -248 -175 -423t-422 -175q-248 0 -423 175t-175 423zM341 693q0 -189 134 -323t323 -134t323 134t134 323t-134 323t-323 134t-323 -134t-134 -323zM546 376v633h302q211 0 211 -211q0 -136 -96 -185l96 -237 h-152l-82 211h-138v-211h-141zM687 728h161q70 0 70 70q0 71 -70 71h-161v-141z" />
<glyph unicode="&#xb0;" horiz-adv-x="700" d="M200 1150q0 51 19.5 96.5t53.5 79.5t79.5 54t97.5 20q51 0 96.5 -20t79.5 -54t54 -79.5t20 -96.5q0 -52 -20 -97.5t-54 -79.5t-79.5 -53.5t-96.5 -19.5q-52 0 -97.5 19.5t-79.5 53.5t-53.5 79.5t-19.5 97.5zM326 1150q0 -26 9.5 -48.5t26.5 -39.5t39.5 -26.5t48.5 -9.5 q25 0 48 10t40 26.5t27 39t10 48.5q0 25 -10 48t-27 40t-40 27t-48 10q-26 0 -48.5 -10t-39 -27t-26.5 -40t-10 -48z" />
<glyph unicode="&#xb1;" d="M200 100v200h800v-200h-800zM200 800v200h300v300h200v-300h300v-200h-300v-300h-200v300h-300z" />
<glyph unicode="&#xb4;" horiz-adv-x="500" d="M200 1100l100 300h200l-100 -300h-200z" />
<glyph unicode="&#xb5;" horiz-adv-x="1100" d="M200 -400v1400h200v-600q0 -200 180 -200q128 0 220 73v727h200v-700q0 -100 100 -100l-10 -200q-173 0 -245 111q-110 -111 -265 -111q-102 0 -180 53v-453h-200z" />
<glyph unicode="&#xb6;" horiz-adv-x="1300" d="M200 954q0 446 500 446h600v-1800h-200v1600h-200v-1600h-200v900q-500 0 -500 454z" />
<glyph unicode="&#xb7;" horiz-adv-x="400" d="M200 600v200h200v-200h-200z" />
<glyph unicode="&#xb8;" horiz-adv-x="650" d="M200 -360l30 90q100 -30 200 -30q70 0 70 70t-70 70h-100v200h100v-100q220 0 220 -170t-220 -170q-113 0 -230 40z" />
<glyph unicode="&#xbb;" horiz-adv-x="1221" d="M200 196l330 504l-327 500h240l327 -500l-330 -504h-240zM652 196l329 504l-327 500h240l327 -500l-329 -504h-240z" />
<glyph unicode="&#xbf;" horiz-adv-x="1060" d="M200 -20q0 260 210 365t210 255h200q0 -270 -210 -360t-210 -260q0 -180 260 -180q159 0 317 73l83 -172v-1q-150 -99 -400 -99q-460 0 -460 379zM620 800v200h200v-200h-200z" />
<glyph unicode="&#xc0;" horiz-adv-x="1100" d="M100 0l400 1400h300l400 -1400h-200l-86 300h-529l-85 -300h-200zM442 500h415l-207 725zM450 1800h200l100 -300h-200z" />
<glyph unicode="&#xc1;" horiz-adv-x="1100" d="M100 0l400 1400h300l400 -1400h-200l-86 300h-529l-85 -300h-200zM442 500h415l-207 725zM550 1500l100 300h200l-100 -300h-200z" />
<glyph unicode="&#xc2;" horiz-adv-x="1100" d="M100 0l400 1400h300l400 -1400h-200l-86 300h-529l-85 -300h-200zM350 1500l170 300h260l170 -300h-200l-100 200l-100 -200h-200zM442 500h415l-207 725z" />
<glyph unicode="&#xc3;" horiz-adv-x="1100" d="M100 0l400 1400h300l400 -1400h-200l-86 300h-529l-85 -300h-200zM301 1500q0 261 211 261q118 0 172 -57q53 -56 103 -56q78 0 92 113h120q0 -261 -211 -261q-119 0 -173 56q-56 57 -102 57q-78 0 -92 -113h-120zM442 500h415l-207 725z" />
<glyph unicode="&#xc4;" horiz-adv-x="1100" d="M100 0l400 1400h300l400 -1400h-200l-86 300h-529l-85 -300h-200zM350 1500v200h200v-200h-200zM442 500h415l-207 725zM750 1500v200h200v-200h-200z" />
<glyph unicode="&#xc5;" horiz-adv-x="1100" d="M100 0l400 1400h300l400 -1400h-200l-86 300h-529l-85 -300h-200zM442 500h415l-207 725zM450 1700q0 41 16 77.5t43 63.5t63.5 43t77.5 16t77.5 -16t63.5 -43t43 -63.5t16 -77.5t-16 -77.5t-43 -63.5t-63.5 -43t-77.5 -16q-42 0 -78.5 15.5t-63.5 42.5t-42.5 63.5 t-15.5 78.5zM571 1700q0 -33 23 -56t56 -23t56.5 23t23.5 56t-23.5 56.5t-56.5 23.5t-56 -23.5t-23 -56.5z" />
<glyph unicode="&#xc6;" horiz-adv-x="1700" d="M100 0l400 1400h1200v-200h-600v-400h550v-200h-550v-400h600v-200h-800v300h-515l-85 -300h-200zM442 500h458v700h-257z" />
<glyph unicode="&#xc7;" horiz-adv-x="1200" d="M200 700q0 700 600 700q250 0 400 -100l-81 -174q-159 74 -319 74q-400 0 -400 -500t400 -500q159 0 318 73l82 -173q-149 -99 -395 -100v-60q220 0 220 -170t-220 -170q-113 0 -230 40l30 90q100 -30 200 -30q70 0 70 70t-70 70h-100v165q-505 53 -505 695z" />
<glyph unicode="&#xc8;" d="M200 0v1400h800v-200h-600v-400h550v-200h-550v-400h600v-200h-800zM400 1800h200l100 -300h-200z" />
<glyph unicode="&#xc9;" d="M200 0v1400h800v-200h-600v-400h550v-200h-550v-400h600v-200h-800zM500 1500l100 300h200l-100 -300h-200z" />
<glyph unicode="&#xca;" d="M200 0v1400h800v-200h-600v-400h550v-200h-550v-400h600v-200h-800zM300 1500l170 300h260l170 -300h-200l-100 200l-100 -200h-200z" />
<glyph unicode="&#xcb;" d="M200 0v1400h800v-200h-600v-400h550v-200h-550v-400h600v-200h-800zM300 1500v200h200v-200h-200zM700 1500v200h200v-200h-200z" />
<glyph unicode="&#xcc;" horiz-adv-x="400" d="M102 1800h200l100 -300h-200zM200 0v1400h200v-1400h-200z" />
<glyph unicode="&#xcd;" horiz-adv-x="400" d="M200 0v1400h200v-1400h-200zM200 1500l100 300h200l-100 -300h-200z" />
<glyph unicode="&#xce;" horiz-adv-x="400" d="M2 1500l170 300h260l170 -300h-200l-100 200l-100 -200h-200zM200 0v1400h200v-1400h-200z" />
<glyph unicode="&#xcf;" horiz-adv-x="400" d="M2 1500v200h200v-200h-200zM200 0v1400h200v-1400h-200zM402 1500v200h200v-200h-200z" />
<glyph unicode="&#xd0;" horiz-adv-x="1300" d="M0 600v200h200v600h400q700 0 700 -700t-700 -700h-400v600h-200zM400 200h200q500 0 500 500t-500 500h-200v-400h300v-200h-300v-400z" />
<glyph unicode="&#xd1;" horiz-adv-x="1200" d="M200 0v1400h200l600 -1020v1020h200v-1400h-200l-600 1020v-1020h-200zM351 1500q0 261 211 261q118 0 172 -57q53 -56 103 -56q78 0 92 113h120q0 -261 -211 -261q-119 0 -173 56q-56 57 -102 57q-78 0 -92 -113h-120z" />
<glyph unicode="&#xd2;" horiz-adv-x="1400" d="M200 700q0 700 600 700t600 -700t-600 -700t-600 700zM400 700q0 -500 400 -500t400 500t-400 500t-400 -500zM600 1800h200l100 -300h-200z" />
<glyph unicode="&#xd3;" horiz-adv-x="1400" d="M200 700q0 700 600 700t600 -700t-600 -700t-600 700zM400 700q0 -500 400 -500t400 500t-400 500t-400 -500zM700 1500l100 300h200l-100 -300h-200z" />
<glyph unicode="&#xd4;" horiz-adv-x="1400" d="M200 700q0 700 600 700t600 -700t-600 -700t-600 700zM400 700q0 -500 400 -500t400 500t-400 500t-400 -500zM500 1500l170 300h260l170 -300h-200l-100 200l-100 -200h-200z" />
<glyph unicode="&#xd5;" horiz-adv-x="1400" d="M200 700q0 700 600 700t600 -700t-600 -700t-600 700zM400 700q0 -500 400 -500t400 500t-400 500t-400 -500zM451 1500q0 261 211 261q118 0 172 -57q53 -56 103 -56q78 0 92 113h120q0 -261 -211 -261q-119 0 -173 56q-56 57 -102 57q-78 0 -92 -113h-120z" />
<glyph unicode="&#xd6;" horiz-adv-x="1400" d="M200 700q0 700 600 700t600 -700t-600 -700t-600 700zM400 700q0 -500 400 -500t400 500t-400 500t-400 -500zM500 1500v200h200v-200h-200zM900 1500v200h200v-200h-200z" />
<glyph unicode="&#xd7;" horiz-adv-x="981" d="M200 945l140 142l250 -246l245 250l143 -141l-246 -249l249 -246l-140 -142l-249 246l-246 -250l-142 141l245 249z" />
<glyph unicode="&#xd8;" horiz-adv-x="1400" d="M200 700q0 700 600 700q198 0 331 -77l104 167l84 -53l-108 -173q189 -172 189 -564q0 -700 -600 -700q-199 0 -331 76l-104 -166l-84 53l107 172q-188 172 -188 565zM400 700q0 -255 104 -380l516 825q-88 55 -220 55q-400 0 -400 -500zM580 254q88 -54 220 -54 q400 0 400 500q0 255 -104 380z" />
<glyph unicode="&#xd9;" horiz-adv-x="1200" d="M200 500v900h200v-900q0 -300 300 -300t300 300v900h200v-900q0 -500 -500 -500t-500 500zM500 1800h200l100 -300h-200z" />
<glyph unicode="&#xda;" horiz-adv-x="1200" d="M200 500v900h200v-900q0 -300 300 -300t300 300v900h200v-900q0 -500 -500 -500t-500 500zM600 1500l100 300h200l-100 -300h-200z" />
<glyph unicode="&#xdb;" horiz-adv-x="1200" d="M200 500v900h200v-900q0 -300 300 -300t300 300v900h200v-900q0 -500 -500 -500t-500 500zM400 1500l170 300h260l170 -300h-200l-100 200l-100 -200h-200z" />
<glyph unicode="&#xdc;" horiz-adv-x="1200" d="M200 500v900h200v-900q0 -300 300 -300t300 300v900h200v-900q0 -500 -500 -500t-500 500zM400 1500v200h200v-200h-200zM800 1500v200h200v-200h-200z" />
<glyph unicode="&#xdd;" horiz-adv-x="1100" d="M100 1400h240l285 -600l285 600h240l-425 -800v-600h-200v600zM525 1500l100 300h200l-100 -300h-200z" />
<glyph unicode="&#xde;" horiz-adv-x="1150" d="M200 0v1400h200v-300h350q400 0 400 -400t-400 -400h-350v-300h-200zM400 500h350q200 0 200 200t-200 200h-350v-400z" />
<glyph unicode="&#xdf;" horiz-adv-x="1120" d="M200 0v1000q0 400 450 400q430 0 430 -400q0 -214 -138 -294q178 -73 178 -306q0 -400 -420 -400h-200v200h200q220 0 220 200t-292 200h-128v200h125q255 0 255 200t-230 200q-250 0 -250 -200v-1000h-200z" />
<glyph unicode="&#xe0;" d="M200 300q0 300 350 300q150 0 250 -100v100q0 200 -230 200q-127 0 -242 -66l-78 166q150 100 320 100q430 0 430 -400v-300q0 -100 100 -100l-10 -200q-172 0 -244 110q-153 -110 -296 -110q-350 0 -350 300zM400 300q0 -130 150 -130t250 70v120q-100 70 -250 70 t-150 -130zM400 1400h200l100 -300h-200z" />
<glyph unicode="&#xe1;" d="M200 300q0 300 350 300q150 0 250 -100v100q0 200 -230 200q-127 0 -242 -66l-78 166q150 100 320 100q430 0 430 -400v-300q0 -100 100 -100l-10 -200q-172 0 -244 110q-153 -110 -296 -110q-350 0 -350 300zM400 300q0 -130 150 -130t250 70v120q-100 70 -250 70 t-150 -130zM500 1100l100 300h200l-100 -300h-200z" />
<glyph unicode="&#xe2;" d="M200 300q0 300 350 300q150 0 250 -100v100q0 200 -230 200q-127 0 -242 -66l-78 166q150 100 320 100q430 0 430 -400v-300q0 -100 100 -100l-10 -200q-172 0 -244 110q-153 -110 -296 -110q-350 0 -350 300zM300 1100l170 300h260l170 -300h-200l-100 200l-100 -200 h-200zM400 300q0 -130 150 -130t250 70v120q-100 70 -250 70t-150 -130z" />
<glyph unicode="&#xe3;" d="M200 300q0 300 350 300q150 0 250 -100v100q0 200 -230 200q-127 0 -242 -66l-78 166q150 100 320 100q430 0 430 -400v-300q0 -100 100 -100l-10 -200q-172 0 -244 110q-153 -110 -296 -110q-350 0 -350 300zM251 1100q0 261 211 261q118 0 172 -57q53 -56 103 -56 q78 0 92 113h120q0 -261 -211 -261q-119 0 -173 56q-56 57 -102 57q-78 0 -92 -113h-120zM400 300q0 -130 150 -130t250 70v120q-100 70 -250 70t-150 -130z" />
<glyph unicode="&#xe4;" d="M200 300q0 300 350 300q150 0 250 -100v100q0 200 -230 200q-127 0 -242 -66l-78 166q150 100 320 100q430 0 430 -400v-300q0 -100 100 -100l-10 -200q-172 0 -244 110q-153 -110 -296 -110q-350 0 -350 300zM300 1100v200h200v-200h-200zM400 300q0 -130 150 -130 t250 70v120q-100 70 -250 70t-150 -130zM700 1100v200h200v-200h-200z" />
<glyph unicode="&#xe5;" d="M200 300q0 300 350 300q150 0 250 -100v100q0 200 -230 200q-127 0 -242 -66l-78 166q150 100 320 100q430 0 430 -400v-300q0 -100 100 -100l-10 -200q-172 0 -244 110q-153 -110 -296 -110q-350 0 -350 300zM400 300q0 -130 150 -130t250 70v120q-100 70 -250 70 t-150 -130zM400 1300q0 41 16 77.5t43 63.5t63.5 43t77.5 16t77.5 -16t63.5 -43t43 -63.5t16 -77.5t-16 -77.5t-43 -63.5t-63.5 -43t-77.5 -16q-42 0 -78.5 15.5t-63.5 42.5t-42.5 63.5t-15.5 78.5zM521 1300q0 -33 23 -56t56 -23t56.5 23t23.5 56t-23.5 56.5t-56.5 23.5 t-56 -23.5t-23 -56.5z" />
<glyph unicode="&#xe6;" horiz-adv-x="1646" d="M200 300q0 300 350 300q150 0 250 -100v100q0 200 -230 200q-127 0 -243 -56l-77 156q150 100 320 100q259 0 341 -186q88 186 314 186q421 0 421 -512v-5l-1 -83h-631q30 -200 211 -200q134 0 287 72l83 -168v-4q-150 -100 -370 -100q-213 0 -329 155 q-120 -155 -346 -155q-350 0 -350 300zM400 300q0 -120 150 -120q214 0 286 95q-12 37 -20 80l-16 5q-100 60 -250 60t-150 -120zM1012 600h425q-33 200 -212 200q-180 0 -213 -200z" />
<glyph unicode="&#xe7;" d="M200 500q0 500 500 500q199 0 299 -99l-75 -167q-112 66 -224 66q-300 0 -300 -300t300 -300q111 0 222 65l78 -165q-100 -100 -300 -100q-23 0 -45 1v-61q220 0 220 -170t-220 -170q-113 0 -230 40l30 90q100 -30 200 -30q70 0 70 70t-70 70h-100v172q-355 66 -355 488z " />
<glyph unicode="&#xe8;" horiz-adv-x="1053" d="M200 500q0 500 440 500q411 0 411 -543q0 -28 -1 -57h-640q35 -200 240 -200q156 0 320 50l30 -189q-138 -61 -350 -61q-450 0 -450 500zM400 1400h200l100 -300h-200zM408 580h443q-7 220 -211 220q-224 0 -232 -220z" />
<glyph unicode="&#xe9;" horiz-adv-x="1053" d="M200 500q0 500 440 500q411 0 411 -543q0 -28 -1 -57h-640q35 -200 240 -200q156 0 320 50l30 -189q-138 -61 -350 -61q-450 0 -450 500zM408 580h443q-7 220 -211 220q-224 0 -232 -220zM500 1100l100 300h200l-100 -300h-200z" />
<glyph unicode="&#xea;" horiz-adv-x="1053" d="M200 500q0 500 440 500q411 0 411 -543q0 -28 -1 -57h-640q35 -200 240 -200q156 0 320 50l30 -189q-138 -61 -350 -61q-450 0 -450 500zM300 1100l170 300h260l170 -300h-200l-100 200l-100 -200h-200zM408 580h443q-7 220 -211 220q-224 0 -232 -220z" />
<glyph unicode="&#xeb;" horiz-adv-x="1053" d="M200 500q0 500 440 500q411 0 411 -543q0 -28 -1 -57h-640q35 -200 240 -200q156 0 320 50l30 -189q-138 -61 -350 -61q-450 0 -450 500zM300 1100v200h200v-200h-200zM408 580h443q-7 220 -211 220q-224 0 -232 -220zM700 1100v200h200v-200h-200z" />
<glyph unicode="&#xec;" horiz-adv-x="400" d="M102 1400h200l100 -300h-200zM200 0v1000h200v-1000h-200z" />
<glyph unicode="&#xed;" horiz-adv-x="400" d="M200 0v1000h200v-1000h-200zM200 1100l100 300h200l-100 -300h-200z" />
<glyph unicode="&#xee;" horiz-adv-x="400" d="M2 1100l170 300h260l170 -300h-200l-100 200l-100 -200h-200zM200 0v1000h200v-1000h-200z" />
<glyph unicode="&#xef;" horiz-adv-x="400" d="M2 1100v200h200v-200h-200zM200 0v1000h200v-1000h-200zM402 1100v200h200v-200h-200z" />
<glyph unicode="&#xf0;" horiz-adv-x="1058" d="M200 500q0 500 400 500q150 0 250 -100v200h-200v150h200v150h200v-150h200v-150h-200v-800q0 -100 100 -100l-10 -200q-189 0 -256 131q-116 -131 -284 -131q-400 0 -400 500zM400 500q0 -300 200 -300q150 0 250 100v400q-100 100 -250 100q-200 0 -200 -300z" />
<glyph unicode="&#xf1;" d="M200 0v1000h200v-100q100 100 220 100q380 0 380 -400v-600h-200v600q0 200 -180 200q-120 0 -220 -100v-700h-200zM251 1100q0 261 211 261q118 0 172 -57q53 -56 103 -56q78 0 92 113h120q0 -261 -211 -261q-119 0 -173 56q-56 57 -102 57q-78 0 -92 -113h-120z" />
<glyph unicode="&#xf2;" horiz-adv-x="1051" d="M200 500q0 500 430 500q420 0 420 -500t-420 -500q-430 0 -430 500zM400 500q0 -300 230 -300q220 0 220 300t-220 300q-230 0 -230 -300zM400 1400h200l100 -300h-200z" />
<glyph unicode="&#xf3;" horiz-adv-x="1051" d="M200 500q0 500 430 500q420 0 420 -500t-420 -500q-430 0 -430 500zM400 500q0 -300 230 -300q220 0 220 300t-220 300q-230 0 -230 -300zM500 1100l100 300h200l-100 -300h-200z" />
<glyph unicode="&#xf4;" horiz-adv-x="1051" d="M200 500q0 500 430 500q420 0 420 -500t-420 -500q-430 0 -430 500zM300 1100l170 300h260l170 -300h-200l-100 200l-100 -200h-200zM400 500q0 -300 230 -300q220 0 220 300t-220 300q-230 0 -230 -300z" />
<glyph unicode="&#xf5;" horiz-adv-x="1051" d="M200 500q0 500 430 500q420 0 420 -500t-420 -500q-430 0 -430 500zM276 1100q0 261 211 261q118 0 172 -57q53 -56 103 -56q78 0 92 113h120q0 -261 -211 -261q-119 0 -173 56q-56 57 -102 57q-78 0 -92 -113h-120zM400 500q0 -300 230 -300q220 0 220 300t-220 300 q-230 0 -230 -300z" />
<glyph unicode="&#xf6;" horiz-adv-x="1051" d="M200 500q0 500 430 500q420 0 420 -500t-420 -500q-430 0 -430 500zM300 1100v200h200v-200h-200zM400 500q0 -300 230 -300q220 0 220 300t-220 300q-230 0 -230 -300zM700 1100v200h200v-200h-200z" />
<glyph unicode="&#xf7;" d="M200 600v200h800v-200h-800zM500 200v200h200v-200h-200zM500 1000v200h200v-200h-200z" />
<glyph unicode="&#xf8;" horiz-adv-x="1051" d="M200 500q0 500 430 500q129 0 219 -48l105 168l84 -53l-109 -175q121 -124 121 -392q0 -500 -420 -500q-135 0 -228 49l-106 -169l-84 53l110 176q-122 124 -122 391zM400 500q0 -127 41 -201l297 476q-45 25 -108 25q-230 0 -230 -300zM513 227q48 -27 117 -27 q220 0 220 300q0 128 -41 201z" />
<glyph unicode="&#xf9;" d="M200 400v600h200v-600q0 -200 180 -200q128 0 220 73v727h200v-700q0 -100 100 -100l-10 -200q-173 0 -245 111q-110 -111 -265 -111q-380 0 -380 400zM400 1400h200l100 -300h-200z" />
<glyph unicode="&#xfa;" d="M200 400v600h200v-600q0 -200 180 -200q128 0 220 73v727h200v-700q0 -100 100 -100l-10 -200q-173 0 -245 111q-110 -111 -265 -111q-380 0 -380 400zM500 1100l100 300h200l-100 -300h-200z" />
<glyph unicode="&#xfb;" d="M200 400v600h200v-600q0 -200 180 -200q128 0 220 73v727h200v-700q0 -100 100 -100l-10 -200q-173 0 -245 111q-110 -111 -265 -111q-380 0 -380 400zM300 1100l170 300h260l170 -300h-200l-100 200l-100 -200h-200z" />
<glyph unicode="&#xfc;" d="M200 400v600h200v-600q0 -200 180 -200q128 0 220 73v727h200v-700q0 -100 100 -100l-10 -200q-173 0 -245 111q-110 -111 -265 -111q-380 0 -380 400zM300 1100v200h200v-200h-200zM700 1100v200h200v-200h-200z" />
<glyph unicode="&#xfd;" horiz-adv-x="900" d="M100 1000h200l244 -763l256 763h200l-470 -1400h-200l134 400h-44zM450 1100l100 300h200l-100 -300h-200z" />
<glyph unicode="&#xfe;" horiz-adv-x="1050" d="M200 -400v1800h200v-500q100 100 250 100q400 0 400 -500t-400 -500q-150 0 -250 100v-500h-200zM400 300q100 -100 250 -100q200 0 200 300t-200 300q-150 0 -250 -100v-400z" />
<glyph unicode="&#xff;" horiz-adv-x="900" d="M100 1000h200l244 -763l256 763h200l-470 -1400h-200l134 400h-44zM250 1100v200h200v-200h-200zM650 1100v200h200v-200h-200z" />
<glyph unicode="&#x152;" horiz-adv-x="1900" d="M200 700q0 700 550 700q226 0 350 -144v144h800v-200h-600v-400h550v-200h-550v-400h600v-200h-800v143q-124 -143 -350 -143q-550 0 -550 700zM400 700q0 -500 350 -500t350 500t-350 500t-350 -500z" />
<glyph unicode="&#x153;" horiz-adv-x="1753" d="M200 500q0 500 450 500q258 0 350 -210q91 210 330 210q423 0 423 -502v-2l-3 -96h-640q45 -200 230 -200q19 -1 37 -1q145 0 243 71l90 -170q-137 -101 -334 -101q-18 0 -36 1q-236 0 -337 215q-90 -215 -353 -215q-450 0 -450 500zM400 500q0 -300 250 -300t250 300 t-250 300t-250 -300zM1108 600h433q-7 200 -211 200q-184 0 -222 -200z" />
<glyph unicode="&#x178;" horiz-adv-x="1100" d="M100 1400h240l285 -600l285 600h240l-425 -800v-600h-200v600zM325 1500v200h200v-200h-200zM725 1500v200h200v-200h-200z" />
<glyph unicode="&#x2c6;" horiz-adv-x="800" d="M200 1100l170 300h260l170 -300h-200l-100 200l-100 -200h-200z" />
<glyph unicode="&#x2dc;" horiz-adv-x="898" d="M200 1100q0 261 211 261q118 0 172 -57q53 -56 103 -56q78 0 92 113h120q0 -261 -211 -261q-119 0 -173 56q-56 57 -102 57q-78 0 -92 -113h-120z" />
<glyph unicode="&#x2000;" horiz-adv-x="950" />
<glyph unicode="&#x2001;" horiz-adv-x="1900" />
<glyph unicode="&#x2002;" horiz-adv-x="950" />
<glyph unicode="&#x2003;" horiz-adv-x="1900" />
<glyph unicode="&#x2004;" horiz-adv-x="633" />
<glyph unicode="&#x2005;" horiz-adv-x="475" />
<glyph unicode="&#x2006;" horiz-adv-x="316" />
<glyph unicode="&#x2007;" horiz-adv-x="316" />
<glyph unicode="&#x2008;" horiz-adv-x="237" />
<glyph unicode="&#x2009;" horiz-adv-x="380" />
<glyph unicode="&#x200a;" horiz-adv-x="105" />
<glyph unicode="&#x2010;" horiz-adv-x="800" d="M200 600v200h600v-200h-600z" />
<glyph unicode="&#x2011;" horiz-adv-x="800" d="M200 600v200h600v-200h-600z" />
<glyph unicode="&#x2012;" horiz-adv-x="800" d="M200 600v200h600v-200h-600z" />
<glyph unicode="&#x2013;" horiz-adv-x="800" d="M200 600v200h600v-200h-600z" />
<glyph unicode="&#x2014;" d="M200 600v200h800v-200h-800z" />
<glyph unicode="&#x2018;" horiz-adv-x="400" d="M200 1000v200q0 200 200 200v-100q-70 0 -70 -100h70v-200h-200z" />
<glyph unicode="&#x2019;" horiz-adv-x="400" d="M200 1000v100q70 0 70 100h-70v200h200v-200q0 -200 -200 -200z" />
<glyph unicode="&#x201a;" horiz-adv-x="400" d="M200 0v200h200v-200q0 -200 -200 -200v100q70 0 70 100h-70z" />
<glyph unicode="&#x201c;" horiz-adv-x="700" d="M200 1000v200q0 200 200 200v-100q-70 0 -70 -100h70v-200h-200zM500 1000v200q0 200 200 200v-100q-70 0 -70 -100h70v-200h-200z" />
<glyph unicode="&#x201d;" horiz-adv-x="700" d="M200 1000v100q70 0 70 100h-70v200h200v-200q0 -200 -200 -200zM500 1000v100q70 0 70 100h-70v200h200v-200q0 -200 -200 -200z" />
<glyph unicode="&#x201e;" horiz-adv-x="700" d="M200 0q70 0 70 100h-70v200h200v-200q0 -200 -200 -200v100zM500 0q70 0 70 100h-70v200h200v-200q0 -200 -200 -200v100z" />
<glyph unicode="&#x2022;" horiz-adv-x="600" d="M200 700q0 83 58.5 141.5t141.5 58.5t141.5 -58.5t58.5 -141.5t-58.5 -141.5t-141.5 -58.5t-141.5 58.5t-58.5 141.5z" />
<glyph unicode="&#x2026;" horiz-adv-x="1200" d="M200 0v200h200v-200h-200zM600 0v200h200v-200h-200zM1000 0v200h200v-200h-200z" />
<glyph unicode="&#x202f;" horiz-adv-x="380" />
<glyph unicode="&#x2039;" horiz-adv-x="770" d="M200 700l327 500h240l-327 -500l330 -504h-240z" />
<glyph unicode="&#x203a;" horiz-adv-x="770" d="M200 196l330 504l-327 500h240l327 -500l-330 -504h-240z" />
<glyph unicode="&#x205f;" horiz-adv-x="475" />
<glyph unicode="&#x20ac;" horiz-adv-x="1350" d="M200 450v150h153q-3 48 -3 100t3 100h-153v150h173q96 450 577 450q250 0 400 -100l-83 -173q-159 73 -317 73q-283 0 -366 -250h566l-50 -150h-546q-4 -47 -4 -100t4 -100h496l-50 -150h-416q83 -250 366 -250q159 0 318 73l82 -173q-150 -100 -400 -100 q-481 0 -577 450h-173z" />
<glyph unicode="&#x2122;" horiz-adv-x="1294" d="M200 1274v126h429v-126h-151v-463h-135v463h-143zM705 811v589h210l84 -421l85 421h210v-589h-126v421l-84 -421h-169l-84 421v-421h-126z" />
<glyph unicode="&#x25fc;" d="M0 0v1000h1000v-1000h-1000z" />
</font>
</defs>
</svg>
